<?xml version="1.0" encoding="iso-8859-1"?>
<!-- Generator: Adobe Illustrator 19.0.0, SVG Export Plug-In . SVG Version: 6.00 Build 0)  -->
<svg version="1.1" xmlns="http://www.w3.org/2000/svg" xmlns:xlink="http://www.w3.org/1999/xlink" x="0px" y="0px"
	 viewBox="0 0 1280 800" style="enable-background:new 0 0 1280 800;" xml:space="preserve">
<g id="major_grid_lines" style="opacity:0.1;">
	<line style="fill:none;stroke:#FFFFFF;stroke-miterlimit:10;" x1="1" y1="0.5" x2="1301" y2="0.5"/>
	<line style="fill:none;stroke:#FFFFFF;stroke-miterlimit:10;" x1="1" y1="1200.5" x2="1301" y2="1200.5"/>
	<line style="fill:none;stroke:#FFFFFF;stroke-miterlimit:10;" x1="1" y1="1100.5" x2="1301" y2="1100.5"/>
	<line style="fill:none;stroke:#FFFFFF;stroke-miterlimit:10;" x1="1" y1="1000.5" x2="1301" y2="1000.5"/>
	<line style="fill:none;stroke:#FFFFFF;stroke-miterlimit:10;" x1="1" y1="900.5" x2="1301" y2="900.5"/>
	<line style="fill:none;stroke:#FFFFFF;stroke-miterlimit:10;" x1="1" y1="800.5" x2="1301" y2="800.5"/>
	<line style="fill:none;stroke:#FFFFFF;stroke-miterlimit:10;" x1="1" y1="700.5" x2="1301" y2="700.5"/>
	<line style="fill:none;stroke:#FFFFFF;stroke-miterlimit:10;" x1="1" y1="600.5" x2="1301" y2="600.5"/>
	<line style="fill:none;stroke:#FFFFFF;stroke-miterlimit:10;" x1="1" y1="500.5" x2="1301" y2="500.5"/>
	<line style="fill:none;stroke:#FFFFFF;stroke-miterlimit:10;" x1="1" y1="400.5" x2="1301" y2="400.5"/>
	<line style="fill:none;stroke:#FFFFFF;stroke-miterlimit:10;" x1="1" y1="300.5" x2="1301" y2="300.5"/>
	<line style="fill:none;stroke:#FFFFFF;stroke-miterlimit:10;" x1="1" y1="200.5" x2="1301" y2="200.5"/>
	<line style="fill:none;stroke:#FFFFFF;stroke-miterlimit:10;" x1="1" y1="100.5" x2="1301" y2="100.5"/>
	<line style="fill:none;stroke:#FFFFFF;stroke-miterlimit:10;" x1="1" y1="1300.5" x2="1301" y2="1300.5"/>
	<line style="fill:none;stroke:#FFFFFF;stroke-miterlimit:10;" x1="0.5" y1="1" x2="0.5" y2="1301"/>
	<line style="fill:none;stroke:#FFFFFF;stroke-miterlimit:10;" x1="1200.5" y1="1" x2="1200.5" y2="1301"/>
	<line style="fill:none;stroke:#FFFFFF;stroke-miterlimit:10;" x1="1100.5" y1="1" x2="1100.5" y2="1301"/>
	<line style="fill:none;stroke:#FFFFFF;stroke-miterlimit:10;" x1="1000.5" y1="1" x2="1000.5" y2="1301"/>
	<line style="fill:none;stroke:#FFFFFF;stroke-miterlimit:10;" x1="900.5" y1="1" x2="900.5" y2="1301"/>
	<line style="fill:none;stroke:#FFFFFF;stroke-miterlimit:10;" x1="800.5" y1="1" x2="800.5" y2="1301"/>
	<line style="fill:none;stroke:#FFFFFF;stroke-miterlimit:10;" x1="700.5" y1="1" x2="700.5" y2="1301"/>
	<line style="fill:none;stroke:#FFFFFF;stroke-miterlimit:10;" x1="600.5" y1="1" x2="600.5" y2="1301"/>
	<line style="fill:none;stroke:#FFFFFF;stroke-miterlimit:10;" x1="500.5" y1="1" x2="500.5" y2="1301"/>
	<line style="fill:none;stroke:#FFFFFF;stroke-miterlimit:10;" x1="400.5" y1="1" x2="400.5" y2="1301"/>
	<line style="fill:none;stroke:#FFFFFF;stroke-miterlimit:10;" x1="300.5" y1="1" x2="300.5" y2="1301"/>
	<line style="fill:none;stroke:#FFFFFF;stroke-miterlimit:10;" x1="200.5" y1="1" x2="200.5" y2="1301"/>
	<line style="fill:none;stroke:#FFFFFF;stroke-miterlimit:10;" x1="100.5" y1="1" x2="100.5" y2="1301"/>
	<line style="fill:none;stroke:#FFFFFF;stroke-miterlimit:10;" x1="1300.5" y1="1" x2="1300.5" y2="1301"/>
</g>
<g id="Layer_1">
</g>
</svg>
