<?xml version="1.0" encoding="iso-8859-1"?>
<!-- Generator: Adobe Illustrator 19.0.0, SVG Export Plug-In . SVG Version: 6.00 Build 0)  -->
<svg version="1.1" xmlns="http://www.w3.org/2000/svg" xmlns:xlink="http://www.w3.org/1999/xlink" x="0px" y="0px"
	 viewBox="0 0 1280 800" style="enable-background:new 0 0 1280 800;" xml:space="preserve">
<g id="minor_grid_lines" style="opacity:0.1;">
	<line style="fill:none;stroke:#FFFFFF;stroke-miterlimit:10;" x1="1" y1="0.5" x2="1301" y2="0.5"/>
	<line style="fill:none;stroke:#FFFFFF;stroke-miterlimit:10;" x1="1" y1="1290.5" x2="1301" y2="1290.5"/>
	<line style="fill:none;stroke:#FFFFFF;stroke-miterlimit:10;" x1="1" y1="1280.5" x2="1301" y2="1280.5"/>
	<line style="fill:none;stroke:#FFFFFF;stroke-miterlimit:10;" x1="1" y1="1270.5" x2="1301" y2="1270.5"/>
	<line style="fill:none;stroke:#FFFFFF;stroke-miterlimit:10;" x1="1" y1="1260.5" x2="1301" y2="1260.5"/>
	<line style="fill:none;stroke:#FFFFFF;stroke-miterlimit:10;" x1="1" y1="1250.5" x2="1301" y2="1250.5"/>
	<line style="fill:none;stroke:#FFFFFF;stroke-miterlimit:10;" x1="1" y1="1240.5" x2="1301" y2="1240.5"/>
	<line style="fill:none;stroke:#FFFFFF;stroke-miterlimit:10;" x1="1" y1="1230.5" x2="1301" y2="1230.5"/>
	<line style="fill:none;stroke:#FFFFFF;stroke-miterlimit:10;" x1="1" y1="1220.5" x2="1301" y2="1220.5"/>
	<line style="fill:none;stroke:#FFFFFF;stroke-miterlimit:10;" x1="1" y1="1210.5" x2="1301" y2="1210.5"/>
	<line style="fill:none;stroke:#FFFFFF;stroke-miterlimit:10;" x1="1" y1="1200.5" x2="1301" y2="1200.5"/>
	<line style="fill:none;stroke:#FFFFFF;stroke-miterlimit:10;" x1="1" y1="1190.5" x2="1301" y2="1190.5"/>
	<line style="fill:none;stroke:#FFFFFF;stroke-miterlimit:10;" x1="1" y1="1180.5" x2="1301" y2="1180.5"/>
	<line style="fill:none;stroke:#FFFFFF;stroke-miterlimit:10;" x1="1" y1="1170.5" x2="1301" y2="1170.5"/>
	<line style="fill:none;stroke:#FFFFFF;stroke-miterlimit:10;" x1="1" y1="1160.5" x2="1301" y2="1160.5"/>
	<line style="fill:none;stroke:#FFFFFF;stroke-miterlimit:10;" x1="1" y1="1150.5" x2="1301" y2="1150.5"/>
	<line style="fill:none;stroke:#FFFFFF;stroke-miterlimit:10;" x1="1" y1="1140.5" x2="1301" y2="1140.5"/>
	<line style="fill:none;stroke:#FFFFFF;stroke-miterlimit:10;" x1="1" y1="1130.5" x2="1301" y2="1130.5"/>
	<line style="fill:none;stroke:#FFFFFF;stroke-miterlimit:10;" x1="1" y1="1120.5" x2="1301" y2="1120.5"/>
	<line style="fill:none;stroke:#FFFFFF;stroke-miterlimit:10;" x1="1" y1="1110.5" x2="1301" y2="1110.5"/>
	<line style="fill:none;stroke:#FFFFFF;stroke-miterlimit:10;" x1="1" y1="1100.5" x2="1301" y2="1100.5"/>
	<line style="fill:none;stroke:#FFFFFF;stroke-miterlimit:10;" x1="1" y1="1090.5" x2="1301" y2="1090.5"/>
	<line style="fill:none;stroke:#FFFFFF;stroke-miterlimit:10;" x1="1" y1="1080.5" x2="1301" y2="1080.5"/>
	<line style="fill:none;stroke:#FFFFFF;stroke-miterlimit:10;" x1="1" y1="1070.5" x2="1301" y2="1070.5"/>
	<line style="fill:none;stroke:#FFFFFF;stroke-miterlimit:10;" x1="1" y1="1060.5" x2="1301" y2="1060.5"/>
	<line style="fill:none;stroke:#FFFFFF;stroke-miterlimit:10;" x1="1" y1="1050.5" x2="1301" y2="1050.5"/>
	<line style="fill:none;stroke:#FFFFFF;stroke-miterlimit:10;" x1="1" y1="1040.5" x2="1301" y2="1040.5"/>
	<line style="fill:none;stroke:#FFFFFF;stroke-miterlimit:10;" x1="1" y1="1030.5" x2="1301" y2="1030.5"/>
	<line style="fill:none;stroke:#FFFFFF;stroke-miterlimit:10;" x1="1" y1="1020.5" x2="1301" y2="1020.5"/>
	<line style="fill:none;stroke:#FFFFFF;stroke-miterlimit:10;" x1="1" y1="1010.5" x2="1301" y2="1010.5"/>
	<line style="fill:none;stroke:#FFFFFF;stroke-miterlimit:10;" x1="1" y1="1000.5" x2="1301" y2="1000.5"/>
	<line style="fill:none;stroke:#FFFFFF;stroke-miterlimit:10;" x1="1" y1="990.5" x2="1301" y2="990.5"/>
	<line style="fill:none;stroke:#FFFFFF;stroke-miterlimit:10;" x1="1" y1="980.5" x2="1301" y2="980.5"/>
	<line style="fill:none;stroke:#FFFFFF;stroke-miterlimit:10;" x1="1" y1="970.5" x2="1301" y2="970.5"/>
	<line style="fill:none;stroke:#FFFFFF;stroke-miterlimit:10;" x1="1" y1="960.5" x2="1301" y2="960.5"/>
	<line style="fill:none;stroke:#FFFFFF;stroke-miterlimit:10;" x1="1" y1="950.5" x2="1301" y2="950.5"/>
	<line style="fill:none;stroke:#FFFFFF;stroke-miterlimit:10;" x1="1" y1="940.5" x2="1301" y2="940.5"/>
	<line style="fill:none;stroke:#FFFFFF;stroke-miterlimit:10;" x1="1" y1="930.5" x2="1301" y2="930.5"/>
	<line style="fill:none;stroke:#FFFFFF;stroke-miterlimit:10;" x1="1" y1="920.5" x2="1301" y2="920.5"/>
	<line style="fill:none;stroke:#FFFFFF;stroke-miterlimit:10;" x1="1" y1="910.5" x2="1301" y2="910.5"/>
	<line style="fill:none;stroke:#FFFFFF;stroke-miterlimit:10;" x1="1" y1="900.5" x2="1301" y2="900.5"/>
	<line style="fill:none;stroke:#FFFFFF;stroke-miterlimit:10;" x1="1" y1="890.5" x2="1301" y2="890.5"/>
	<line style="fill:none;stroke:#FFFFFF;stroke-miterlimit:10;" x1="1" y1="880.5" x2="1301" y2="880.5"/>
	<line style="fill:none;stroke:#FFFFFF;stroke-miterlimit:10;" x1="1" y1="870.5" x2="1301" y2="870.5"/>
	<line style="fill:none;stroke:#FFFFFF;stroke-miterlimit:10;" x1="1" y1="860.5" x2="1301" y2="860.5"/>
	<line style="fill:none;stroke:#FFFFFF;stroke-miterlimit:10;" x1="1" y1="850.5" x2="1301" y2="850.5"/>
	<line style="fill:none;stroke:#FFFFFF;stroke-miterlimit:10;" x1="1" y1="840.5" x2="1301" y2="840.5"/>
	<line style="fill:none;stroke:#FFFFFF;stroke-miterlimit:10;" x1="1" y1="830.5" x2="1301" y2="830.5"/>
	<line style="fill:none;stroke:#FFFFFF;stroke-miterlimit:10;" x1="1" y1="820.5" x2="1301" y2="820.5"/>
	<line style="fill:none;stroke:#FFFFFF;stroke-miterlimit:10;" x1="1" y1="810.5" x2="1301" y2="810.5"/>
	<line style="fill:none;stroke:#FFFFFF;stroke-miterlimit:10;" x1="1" y1="800.5" x2="1301" y2="800.5"/>
	<line style="fill:none;stroke:#FFFFFF;stroke-miterlimit:10;" x1="1" y1="790.5" x2="1301" y2="790.5"/>
	<line style="fill:none;stroke:#FFFFFF;stroke-miterlimit:10;" x1="1" y1="780.5" x2="1301" y2="780.5"/>
	<line style="fill:none;stroke:#FFFFFF;stroke-miterlimit:10;" x1="1" y1="770.5" x2="1301" y2="770.5"/>
	<line style="fill:none;stroke:#FFFFFF;stroke-miterlimit:10;" x1="1" y1="760.5" x2="1301" y2="760.5"/>
	<line style="fill:none;stroke:#FFFFFF;stroke-miterlimit:10;" x1="1" y1="750.5" x2="1301" y2="750.5"/>
	<line style="fill:none;stroke:#FFFFFF;stroke-miterlimit:10;" x1="1" y1="740.5" x2="1301" y2="740.5"/>
	<line style="fill:none;stroke:#FFFFFF;stroke-miterlimit:10;" x1="1" y1="730.5" x2="1301" y2="730.5"/>
	<line style="fill:none;stroke:#FFFFFF;stroke-miterlimit:10;" x1="1" y1="720.5" x2="1301" y2="720.5"/>
	<line style="fill:none;stroke:#FFFFFF;stroke-miterlimit:10;" x1="1" y1="710.5" x2="1301" y2="710.5"/>
	<line style="fill:none;stroke:#FFFFFF;stroke-miterlimit:10;" x1="1" y1="700.5" x2="1301" y2="700.5"/>
	<line style="fill:none;stroke:#FFFFFF;stroke-miterlimit:10;" x1="1" y1="690.5" x2="1301" y2="690.5"/>
	<line style="fill:none;stroke:#FFFFFF;stroke-miterlimit:10;" x1="1" y1="680.5" x2="1301" y2="680.5"/>
	<line style="fill:none;stroke:#FFFFFF;stroke-miterlimit:10;" x1="1" y1="670.5" x2="1301" y2="670.5"/>
	<line style="fill:none;stroke:#FFFFFF;stroke-miterlimit:10;" x1="1" y1="660.5" x2="1301" y2="660.5"/>
	<line style="fill:none;stroke:#FFFFFF;stroke-miterlimit:10;" x1="1" y1="650.5" x2="1301" y2="650.5"/>
	<line style="fill:none;stroke:#FFFFFF;stroke-miterlimit:10;" x1="1" y1="640.5" x2="1301" y2="640.5"/>
	<line style="fill:none;stroke:#FFFFFF;stroke-miterlimit:10;" x1="1" y1="630.5" x2="1301" y2="630.5"/>
	<line style="fill:none;stroke:#FFFFFF;stroke-miterlimit:10;" x1="1" y1="620.5" x2="1301" y2="620.5"/>
	<line style="fill:none;stroke:#FFFFFF;stroke-miterlimit:10;" x1="1" y1="610.5" x2="1301" y2="610.5"/>
	<line style="fill:none;stroke:#FFFFFF;stroke-miterlimit:10;" x1="1" y1="600.5" x2="1301" y2="600.5"/>
	<line style="fill:none;stroke:#FFFFFF;stroke-miterlimit:10;" x1="1" y1="590.5" x2="1301" y2="590.5"/>
	<line style="fill:none;stroke:#FFFFFF;stroke-miterlimit:10;" x1="1" y1="580.5" x2="1301" y2="580.5"/>
	<line style="fill:none;stroke:#FFFFFF;stroke-miterlimit:10;" x1="1" y1="570.5" x2="1301" y2="570.5"/>
	<line style="fill:none;stroke:#FFFFFF;stroke-miterlimit:10;" x1="1" y1="560.5" x2="1301" y2="560.5"/>
	<line style="fill:none;stroke:#FFFFFF;stroke-miterlimit:10;" x1="1" y1="550.5" x2="1301" y2="550.5"/>
	<line style="fill:none;stroke:#FFFFFF;stroke-miterlimit:10;" x1="1" y1="540.5" x2="1301" y2="540.5"/>
	<line style="fill:none;stroke:#FFFFFF;stroke-miterlimit:10;" x1="1" y1="530.5" x2="1301" y2="530.5"/>
	<line style="fill:none;stroke:#FFFFFF;stroke-miterlimit:10;" x1="1" y1="520.5" x2="1301" y2="520.5"/>
	<line style="fill:none;stroke:#FFFFFF;stroke-miterlimit:10;" x1="1" y1="510.5" x2="1301" y2="510.5"/>
	<line style="fill:none;stroke:#FFFFFF;stroke-miterlimit:10;" x1="1" y1="500.5" x2="1301" y2="500.5"/>
	<line style="fill:none;stroke:#FFFFFF;stroke-miterlimit:10;" x1="1" y1="490.5" x2="1301" y2="490.5"/>
	<line style="fill:none;stroke:#FFFFFF;stroke-miterlimit:10;" x1="1" y1="480.5" x2="1301" y2="480.5"/>
	<line style="fill:none;stroke:#FFFFFF;stroke-miterlimit:10;" x1="1" y1="470.5" x2="1301" y2="470.5"/>
	<line style="fill:none;stroke:#FFFFFF;stroke-miterlimit:10;" x1="1" y1="460.5" x2="1301" y2="460.5"/>
	<line style="fill:none;stroke:#FFFFFF;stroke-miterlimit:10;" x1="1" y1="450.5" x2="1301" y2="450.5"/>
	<line style="fill:none;stroke:#FFFFFF;stroke-miterlimit:10;" x1="1" y1="440.5" x2="1301" y2="440.5"/>
	<line style="fill:none;stroke:#FFFFFF;stroke-miterlimit:10;" x1="1" y1="430.5" x2="1301" y2="430.5"/>
	<line style="fill:none;stroke:#FFFFFF;stroke-miterlimit:10;" x1="1" y1="420.5" x2="1301" y2="420.5"/>
	<line style="fill:none;stroke:#FFFFFF;stroke-miterlimit:10;" x1="1" y1="410.5" x2="1301" y2="410.5"/>
	<line style="fill:none;stroke:#FFFFFF;stroke-miterlimit:10;" x1="1" y1="400.5" x2="1301" y2="400.5"/>
	<line style="fill:none;stroke:#FFFFFF;stroke-miterlimit:10;" x1="1" y1="390.5" x2="1301" y2="390.5"/>
	<line style="fill:none;stroke:#FFFFFF;stroke-miterlimit:10;" x1="1" y1="380.5" x2="1301" y2="380.5"/>
	<line style="fill:none;stroke:#FFFFFF;stroke-miterlimit:10;" x1="1" y1="370.5" x2="1301" y2="370.5"/>
	<line style="fill:none;stroke:#FFFFFF;stroke-miterlimit:10;" x1="1" y1="360.5" x2="1301" y2="360.5"/>
	<line style="fill:none;stroke:#FFFFFF;stroke-miterlimit:10;" x1="1" y1="350.5" x2="1301" y2="350.5"/>
	<line style="fill:none;stroke:#FFFFFF;stroke-miterlimit:10;" x1="1" y1="340.5" x2="1301" y2="340.5"/>
	<line style="fill:none;stroke:#FFFFFF;stroke-miterlimit:10;" x1="1" y1="330.5" x2="1301" y2="330.5"/>
	<line style="fill:none;stroke:#FFFFFF;stroke-miterlimit:10;" x1="1" y1="320.5" x2="1301" y2="320.5"/>
	<line style="fill:none;stroke:#FFFFFF;stroke-miterlimit:10;" x1="1" y1="310.5" x2="1301" y2="310.5"/>
	<line style="fill:none;stroke:#FFFFFF;stroke-miterlimit:10;" x1="1" y1="300.5" x2="1301" y2="300.5"/>
	<line style="fill:none;stroke:#FFFFFF;stroke-miterlimit:10;" x1="1" y1="290.5" x2="1301" y2="290.5"/>
	<line style="fill:none;stroke:#FFFFFF;stroke-miterlimit:10;" x1="1" y1="280.5" x2="1301" y2="280.5"/>
	<line style="fill:none;stroke:#FFFFFF;stroke-miterlimit:10;" x1="1" y1="270.5" x2="1301" y2="270.5"/>
	<line style="fill:none;stroke:#FFFFFF;stroke-miterlimit:10;" x1="1" y1="260.5" x2="1301" y2="260.5"/>
	<line style="fill:none;stroke:#FFFFFF;stroke-miterlimit:10;" x1="1" y1="250.5" x2="1301" y2="250.5"/>
	<line style="fill:none;stroke:#FFFFFF;stroke-miterlimit:10;" x1="1" y1="240.5" x2="1301" y2="240.5"/>
	<line style="fill:none;stroke:#FFFFFF;stroke-miterlimit:10;" x1="1" y1="230.5" x2="1301" y2="230.5"/>
	<line style="fill:none;stroke:#FFFFFF;stroke-miterlimit:10;" x1="1" y1="220.5" x2="1301" y2="220.5"/>
	<line style="fill:none;stroke:#FFFFFF;stroke-miterlimit:10;" x1="1" y1="210.5" x2="1301" y2="210.5"/>
	<line style="fill:none;stroke:#FFFFFF;stroke-miterlimit:10;" x1="1" y1="200.5" x2="1301" y2="200.5"/>
	<line style="fill:none;stroke:#FFFFFF;stroke-miterlimit:10;" x1="1" y1="190.5" x2="1301" y2="190.5"/>
	<line style="fill:none;stroke:#FFFFFF;stroke-miterlimit:10;" x1="1" y1="180.5" x2="1301" y2="180.5"/>
	<line style="fill:none;stroke:#FFFFFF;stroke-miterlimit:10;" x1="1" y1="170.5" x2="1301" y2="170.5"/>
	<line style="fill:none;stroke:#FFFFFF;stroke-miterlimit:10;" x1="1" y1="160.5" x2="1301" y2="160.5"/>
	<line style="fill:none;stroke:#FFFFFF;stroke-miterlimit:10;" x1="1" y1="150.5" x2="1301" y2="150.5"/>
	<line style="fill:none;stroke:#FFFFFF;stroke-miterlimit:10;" x1="1" y1="140.5" x2="1301" y2="140.5"/>
	<line style="fill:none;stroke:#FFFFFF;stroke-miterlimit:10;" x1="1" y1="130.5" x2="1301" y2="130.5"/>
	<line style="fill:none;stroke:#FFFFFF;stroke-miterlimit:10;" x1="1" y1="120.5" x2="1301" y2="120.5"/>
	<line style="fill:none;stroke:#FFFFFF;stroke-miterlimit:10;" x1="1" y1="110.5" x2="1301" y2="110.5"/>
	<line style="fill:none;stroke:#FFFFFF;stroke-miterlimit:10;" x1="1" y1="100.5" x2="1301" y2="100.5"/>
	<line style="fill:none;stroke:#FFFFFF;stroke-miterlimit:10;" x1="1" y1="90.5" x2="1301" y2="90.5"/>
	<line style="fill:none;stroke:#FFFFFF;stroke-miterlimit:10;" x1="1" y1="80.5" x2="1301" y2="80.5"/>
	<line style="fill:none;stroke:#FFFFFF;stroke-miterlimit:10;" x1="1" y1="70.5" x2="1301" y2="70.5"/>
	<line style="fill:none;stroke:#FFFFFF;stroke-miterlimit:10;" x1="1" y1="60.5" x2="1301" y2="60.5"/>
	<line style="fill:none;stroke:#FFFFFF;stroke-miterlimit:10;" x1="1" y1="50.5" x2="1301" y2="50.5"/>
	<line style="fill:none;stroke:#FFFFFF;stroke-miterlimit:10;" x1="1" y1="40.5" x2="1301" y2="40.5"/>
	<line style="fill:none;stroke:#FFFFFF;stroke-miterlimit:10;" x1="1" y1="30.5" x2="1301" y2="30.5"/>
	<line style="fill:none;stroke:#FFFFFF;stroke-miterlimit:10;" x1="1" y1="20.5" x2="1301" y2="20.5"/>
	<line style="fill:none;stroke:#FFFFFF;stroke-miterlimit:10;" x1="1" y1="10.5" x2="1301" y2="10.5"/>
	<line style="fill:none;stroke:#FFFFFF;stroke-miterlimit:10;" x1="1" y1="1300.5" x2="1301" y2="1300.5"/>
	<line style="fill:none;stroke:#FFFFFF;stroke-miterlimit:10;" x1="0.5" y1="0" x2="0.5" y2="1300"/>
	<line style="fill:none;stroke:#FFFFFF;stroke-miterlimit:10;" x1="1290.5" y1="0" x2="1290.5" y2="1300"/>
	<line style="fill:none;stroke:#FFFFFF;stroke-miterlimit:10;" x1="1280.5" y1="0" x2="1280.5" y2="1300"/>
	<line style="fill:none;stroke:#FFFFFF;stroke-miterlimit:10;" x1="1270.5" y1="0" x2="1270.5" y2="1300"/>
	<line style="fill:none;stroke:#FFFFFF;stroke-miterlimit:10;" x1="1260.5" y1="0" x2="1260.5" y2="1300"/>
	<line style="fill:none;stroke:#FFFFFF;stroke-miterlimit:10;" x1="1250.5" y1="0" x2="1250.5" y2="1300"/>
	<line style="fill:none;stroke:#FFFFFF;stroke-miterlimit:10;" x1="1240.5" y1="0" x2="1240.5" y2="1300"/>
	<line style="fill:none;stroke:#FFFFFF;stroke-miterlimit:10;" x1="1230.5" y1="0" x2="1230.5" y2="1300"/>
	<line style="fill:none;stroke:#FFFFFF;stroke-miterlimit:10;" x1="1220.5" y1="0" x2="1220.5" y2="1300"/>
	<line style="fill:none;stroke:#FFFFFF;stroke-miterlimit:10;" x1="1210.5" y1="0" x2="1210.5" y2="1300"/>
	<line style="fill:none;stroke:#FFFFFF;stroke-miterlimit:10;" x1="1200.5" y1="0" x2="1200.5" y2="1300"/>
	<line style="fill:none;stroke:#FFFFFF;stroke-miterlimit:10;" x1="1190.5" y1="0" x2="1190.5" y2="1300"/>
	<line style="fill:none;stroke:#FFFFFF;stroke-miterlimit:10;" x1="1180.5" y1="0" x2="1180.5" y2="1300"/>
	<line style="fill:none;stroke:#FFFFFF;stroke-miterlimit:10;" x1="1170.5" y1="0" x2="1170.5" y2="1300"/>
	<line style="fill:none;stroke:#FFFFFF;stroke-miterlimit:10;" x1="1160.5" y1="0" x2="1160.5" y2="1300"/>
	<line style="fill:none;stroke:#FFFFFF;stroke-miterlimit:10;" x1="1150.5" y1="0" x2="1150.5" y2="1300"/>
	<line style="fill:none;stroke:#FFFFFF;stroke-miterlimit:10;" x1="1140.5" y1="0" x2="1140.5" y2="1300"/>
	<line style="fill:none;stroke:#FFFFFF;stroke-miterlimit:10;" x1="1130.5" y1="0" x2="1130.5" y2="1300"/>
	<line style="fill:none;stroke:#FFFFFF;stroke-miterlimit:10;" x1="1120.5" y1="0" x2="1120.5" y2="1300"/>
	<line style="fill:none;stroke:#FFFFFF;stroke-miterlimit:10;" x1="1110.5" y1="0" x2="1110.5" y2="1300"/>
	<line style="fill:none;stroke:#FFFFFF;stroke-miterlimit:10;" x1="1100.5" y1="0" x2="1100.5" y2="1300"/>
	<line style="fill:none;stroke:#FFFFFF;stroke-miterlimit:10;" x1="1090.5" y1="0" x2="1090.5" y2="1300"/>
	<line style="fill:none;stroke:#FFFFFF;stroke-miterlimit:10;" x1="1080.5" y1="0" x2="1080.5" y2="1300"/>
	<line style="fill:none;stroke:#FFFFFF;stroke-miterlimit:10;" x1="1070.5" y1="0" x2="1070.5" y2="1300"/>
	<line style="fill:none;stroke:#FFFFFF;stroke-miterlimit:10;" x1="1060.5" y1="0" x2="1060.5" y2="1300"/>
	<line style="fill:none;stroke:#FFFFFF;stroke-miterlimit:10;" x1="1050.5" y1="0" x2="1050.5" y2="1300"/>
	<line style="fill:none;stroke:#FFFFFF;stroke-miterlimit:10;" x1="1040.5" y1="0" x2="1040.5" y2="1300"/>
	<line style="fill:none;stroke:#FFFFFF;stroke-miterlimit:10;" x1="1030.5" y1="0" x2="1030.5" y2="1300"/>
	<line style="fill:none;stroke:#FFFFFF;stroke-miterlimit:10;" x1="1020.5" y1="0" x2="1020.5" y2="1300"/>
	<line style="fill:none;stroke:#FFFFFF;stroke-miterlimit:10;" x1="1010.5" y1="0" x2="1010.5" y2="1300"/>
	<line style="fill:none;stroke:#FFFFFF;stroke-miterlimit:10;" x1="1000.5" y1="0" x2="1000.5" y2="1300"/>
	<line style="fill:none;stroke:#FFFFFF;stroke-miterlimit:10;" x1="990.5" y1="0" x2="990.5" y2="1300"/>
	<line style="fill:none;stroke:#FFFFFF;stroke-miterlimit:10;" x1="980.5" y1="0" x2="980.5" y2="1300"/>
	<line style="fill:none;stroke:#FFFFFF;stroke-miterlimit:10;" x1="970.5" y1="0" x2="970.5" y2="1300"/>
	<line style="fill:none;stroke:#FFFFFF;stroke-miterlimit:10;" x1="960.5" y1="0" x2="960.5" y2="1300"/>
	<line style="fill:none;stroke:#FFFFFF;stroke-miterlimit:10;" x1="950.5" y1="0" x2="950.5" y2="1300"/>
	<line style="fill:none;stroke:#FFFFFF;stroke-miterlimit:10;" x1="940.5" y1="0" x2="940.5" y2="1300"/>
	<line style="fill:none;stroke:#FFFFFF;stroke-miterlimit:10;" x1="930.5" y1="0" x2="930.5" y2="1300"/>
	<line style="fill:none;stroke:#FFFFFF;stroke-miterlimit:10;" x1="920.5" y1="0" x2="920.5" y2="1300"/>
	<line style="fill:none;stroke:#FFFFFF;stroke-miterlimit:10;" x1="910.5" y1="0" x2="910.5" y2="1300"/>
	<line style="fill:none;stroke:#FFFFFF;stroke-miterlimit:10;" x1="900.5" y1="0" x2="900.5" y2="1300"/>
	<line style="fill:none;stroke:#FFFFFF;stroke-miterlimit:10;" x1="890.5" y1="0" x2="890.5" y2="1300"/>
	<line style="fill:none;stroke:#FFFFFF;stroke-miterlimit:10;" x1="880.5" y1="0" x2="880.5" y2="1300"/>
	<line style="fill:none;stroke:#FFFFFF;stroke-miterlimit:10;" x1="870.5" y1="0" x2="870.5" y2="1300"/>
	<line style="fill:none;stroke:#FFFFFF;stroke-miterlimit:10;" x1="860.5" y1="0" x2="860.5" y2="1300"/>
	<line style="fill:none;stroke:#FFFFFF;stroke-miterlimit:10;" x1="850.5" y1="0" x2="850.5" y2="1300"/>
	<line style="fill:none;stroke:#FFFFFF;stroke-miterlimit:10;" x1="840.5" y1="0" x2="840.5" y2="1300"/>
	<line style="fill:none;stroke:#FFFFFF;stroke-miterlimit:10;" x1="830.5" y1="0" x2="830.5" y2="1300"/>
	<line style="fill:none;stroke:#FFFFFF;stroke-miterlimit:10;" x1="820.5" y1="0" x2="820.5" y2="1300"/>
	<line style="fill:none;stroke:#FFFFFF;stroke-miterlimit:10;" x1="810.5" y1="0" x2="810.5" y2="1300"/>
	<line style="fill:none;stroke:#FFFFFF;stroke-miterlimit:10;" x1="800.5" y1="0" x2="800.5" y2="1300"/>
	<line style="fill:none;stroke:#FFFFFF;stroke-miterlimit:10;" x1="790.5" y1="0" x2="790.5" y2="1300"/>
	<line style="fill:none;stroke:#FFFFFF;stroke-miterlimit:10;" x1="780.5" y1="0" x2="780.5" y2="1300"/>
	<line style="fill:none;stroke:#FFFFFF;stroke-miterlimit:10;" x1="770.5" y1="0" x2="770.5" y2="1300"/>
	<line style="fill:none;stroke:#FFFFFF;stroke-miterlimit:10;" x1="760.5" y1="0" x2="760.5" y2="1300"/>
	<line style="fill:none;stroke:#FFFFFF;stroke-miterlimit:10;" x1="750.5" y1="0" x2="750.5" y2="1300"/>
	<line style="fill:none;stroke:#FFFFFF;stroke-miterlimit:10;" x1="740.5" y1="0" x2="740.5" y2="1300"/>
	<line style="fill:none;stroke:#FFFFFF;stroke-miterlimit:10;" x1="730.5" y1="0" x2="730.5" y2="1300"/>
	<line style="fill:none;stroke:#FFFFFF;stroke-miterlimit:10;" x1="720.5" y1="0" x2="720.5" y2="1300"/>
	<line style="fill:none;stroke:#FFFFFF;stroke-miterlimit:10;" x1="710.5" y1="0" x2="710.5" y2="1300"/>
	<line style="fill:none;stroke:#FFFFFF;stroke-miterlimit:10;" x1="700.5" y1="0" x2="700.5" y2="1300"/>
	<line style="fill:none;stroke:#FFFFFF;stroke-miterlimit:10;" x1="690.5" y1="0" x2="690.5" y2="1300"/>
	<line style="fill:none;stroke:#FFFFFF;stroke-miterlimit:10;" x1="680.5" y1="0" x2="680.5" y2="1300"/>
	<line style="fill:none;stroke:#FFFFFF;stroke-miterlimit:10;" x1="670.5" y1="0" x2="670.5" y2="1300"/>
	<line style="fill:none;stroke:#FFFFFF;stroke-miterlimit:10;" x1="660.5" y1="0" x2="660.5" y2="1300"/>
	<line style="fill:none;stroke:#FFFFFF;stroke-miterlimit:10;" x1="650.5" y1="0" x2="650.5" y2="1300"/>
	<line style="fill:none;stroke:#FFFFFF;stroke-miterlimit:10;" x1="640.5" y1="0" x2="640.5" y2="1300"/>
	<line style="fill:none;stroke:#FFFFFF;stroke-miterlimit:10;" x1="630.5" y1="0" x2="630.5" y2="1300"/>
	<line style="fill:none;stroke:#FFFFFF;stroke-miterlimit:10;" x1="620.5" y1="0" x2="620.5" y2="1300"/>
	<line style="fill:none;stroke:#FFFFFF;stroke-miterlimit:10;" x1="610.5" y1="0" x2="610.5" y2="1300"/>
	<line style="fill:none;stroke:#FFFFFF;stroke-miterlimit:10;" x1="600.5" y1="0" x2="600.5" y2="1300"/>
	<line style="fill:none;stroke:#FFFFFF;stroke-miterlimit:10;" x1="590.5" y1="0" x2="590.5" y2="1300"/>
	<line style="fill:none;stroke:#FFFFFF;stroke-miterlimit:10;" x1="580.5" y1="0" x2="580.5" y2="1300"/>
	<line style="fill:none;stroke:#FFFFFF;stroke-miterlimit:10;" x1="570.5" y1="0" x2="570.5" y2="1300"/>
	<line style="fill:none;stroke:#FFFFFF;stroke-miterlimit:10;" x1="560.5" y1="0" x2="560.5" y2="1300"/>
	<line style="fill:none;stroke:#FFFFFF;stroke-miterlimit:10;" x1="550.5" y1="0" x2="550.5" y2="1300"/>
	<line style="fill:none;stroke:#FFFFFF;stroke-miterlimit:10;" x1="540.5" y1="0" x2="540.5" y2="1300"/>
	<line style="fill:none;stroke:#FFFFFF;stroke-miterlimit:10;" x1="530.5" y1="0" x2="530.5" y2="1300"/>
	<line style="fill:none;stroke:#FFFFFF;stroke-miterlimit:10;" x1="520.5" y1="0" x2="520.5" y2="1300"/>
	<line style="fill:none;stroke:#FFFFFF;stroke-miterlimit:10;" x1="510.5" y1="0" x2="510.5" y2="1300"/>
	<line style="fill:none;stroke:#FFFFFF;stroke-miterlimit:10;" x1="500.5" y1="0" x2="500.5" y2="1300"/>
	<line style="fill:none;stroke:#FFFFFF;stroke-miterlimit:10;" x1="490.5" y1="0" x2="490.5" y2="1300"/>
	<line style="fill:none;stroke:#FFFFFF;stroke-miterlimit:10;" x1="480.5" y1="0" x2="480.5" y2="1300"/>
	<line style="fill:none;stroke:#FFFFFF;stroke-miterlimit:10;" x1="470.5" y1="0" x2="470.5" y2="1300"/>
	<line style="fill:none;stroke:#FFFFFF;stroke-miterlimit:10;" x1="460.5" y1="0" x2="460.5" y2="1300"/>
	<line style="fill:none;stroke:#FFFFFF;stroke-miterlimit:10;" x1="450.5" y1="0" x2="450.5" y2="1300"/>
	<line style="fill:none;stroke:#FFFFFF;stroke-miterlimit:10;" x1="440.5" y1="0" x2="440.5" y2="1300"/>
	<line style="fill:none;stroke:#FFFFFF;stroke-miterlimit:10;" x1="430.5" y1="0" x2="430.5" y2="1300"/>
	<line style="fill:none;stroke:#FFFFFF;stroke-miterlimit:10;" x1="420.5" y1="0" x2="420.5" y2="1300"/>
	<line style="fill:none;stroke:#FFFFFF;stroke-miterlimit:10;" x1="410.5" y1="0" x2="410.5" y2="1300"/>
	<line style="fill:none;stroke:#FFFFFF;stroke-miterlimit:10;" x1="400.5" y1="0" x2="400.5" y2="1300"/>
	<line style="fill:none;stroke:#FFFFFF;stroke-miterlimit:10;" x1="390.5" y1="0" x2="390.5" y2="1300"/>
	<line style="fill:none;stroke:#FFFFFF;stroke-miterlimit:10;" x1="380.5" y1="0" x2="380.5" y2="1300"/>
	<line style="fill:none;stroke:#FFFFFF;stroke-miterlimit:10;" x1="370.5" y1="0" x2="370.5" y2="1300"/>
	<line style="fill:none;stroke:#FFFFFF;stroke-miterlimit:10;" x1="360.5" y1="0" x2="360.5" y2="1300"/>
	<line style="fill:none;stroke:#FFFFFF;stroke-miterlimit:10;" x1="350.5" y1="0" x2="350.5" y2="1300"/>
	<line style="fill:none;stroke:#FFFFFF;stroke-miterlimit:10;" x1="340.5" y1="0" x2="340.5" y2="1300"/>
	<line style="fill:none;stroke:#FFFFFF;stroke-miterlimit:10;" x1="330.5" y1="0" x2="330.5" y2="1300"/>
	<line style="fill:none;stroke:#FFFFFF;stroke-miterlimit:10;" x1="320.5" y1="0" x2="320.5" y2="1300"/>
	<line style="fill:none;stroke:#FFFFFF;stroke-miterlimit:10;" x1="310.5" y1="0" x2="310.5" y2="1300"/>
	<line style="fill:none;stroke:#FFFFFF;stroke-miterlimit:10;" x1="300.5" y1="0" x2="300.5" y2="1300"/>
	<line style="fill:none;stroke:#FFFFFF;stroke-miterlimit:10;" x1="290.5" y1="0" x2="290.5" y2="1300"/>
	<line style="fill:none;stroke:#FFFFFF;stroke-miterlimit:10;" x1="280.5" y1="0" x2="280.5" y2="1300"/>
	<line style="fill:none;stroke:#FFFFFF;stroke-miterlimit:10;" x1="270.5" y1="0" x2="270.5" y2="1300"/>
	<line style="fill:none;stroke:#FFFFFF;stroke-miterlimit:10;" x1="260.5" y1="0" x2="260.5" y2="1300"/>
	<line style="fill:none;stroke:#FFFFFF;stroke-miterlimit:10;" x1="250.5" y1="0" x2="250.5" y2="1300"/>
	<line style="fill:none;stroke:#FFFFFF;stroke-miterlimit:10;" x1="240.5" y1="0" x2="240.5" y2="1300"/>
	<line style="fill:none;stroke:#FFFFFF;stroke-miterlimit:10;" x1="230.5" y1="0" x2="230.5" y2="1300"/>
	<line style="fill:none;stroke:#FFFFFF;stroke-miterlimit:10;" x1="220.5" y1="0" x2="220.5" y2="1300"/>
	<line style="fill:none;stroke:#FFFFFF;stroke-miterlimit:10;" x1="210.5" y1="0" x2="210.5" y2="1300"/>
	<line style="fill:none;stroke:#FFFFFF;stroke-miterlimit:10;" x1="200.5" y1="0" x2="200.5" y2="1300"/>
	<line style="fill:none;stroke:#FFFFFF;stroke-miterlimit:10;" x1="190.5" y1="0" x2="190.5" y2="1300"/>
	<line style="fill:none;stroke:#FFFFFF;stroke-miterlimit:10;" x1="180.5" y1="0" x2="180.5" y2="1300"/>
	<line style="fill:none;stroke:#FFFFFF;stroke-miterlimit:10;" x1="170.5" y1="0" x2="170.5" y2="1300"/>
	<line style="fill:none;stroke:#FFFFFF;stroke-miterlimit:10;" x1="160.5" y1="0" x2="160.5" y2="1300"/>
	<line style="fill:none;stroke:#FFFFFF;stroke-miterlimit:10;" x1="150.5" y1="0" x2="150.5" y2="1300"/>
	<line style="fill:none;stroke:#FFFFFF;stroke-miterlimit:10;" x1="140.5" y1="0" x2="140.5" y2="1300"/>
	<line style="fill:none;stroke:#FFFFFF;stroke-miterlimit:10;" x1="130.5" y1="0" x2="130.5" y2="1300"/>
	<line style="fill:none;stroke:#FFFFFF;stroke-miterlimit:10;" x1="120.5" y1="0" x2="120.5" y2="1300"/>
	<line style="fill:none;stroke:#FFFFFF;stroke-miterlimit:10;" x1="110.5" y1="0" x2="110.5" y2="1300"/>
	<line style="fill:none;stroke:#FFFFFF;stroke-miterlimit:10;" x1="100.5" y1="0" x2="100.5" y2="1300"/>
	<line style="fill:none;stroke:#FFFFFF;stroke-miterlimit:10;" x1="90.5" y1="0" x2="90.5" y2="1300"/>
	<line style="fill:none;stroke:#FFFFFF;stroke-miterlimit:10;" x1="80.5" y1="0" x2="80.5" y2="1300"/>
	<line style="fill:none;stroke:#FFFFFF;stroke-miterlimit:10;" x1="70.5" y1="0" x2="70.5" y2="1300"/>
	<line style="fill:none;stroke:#FFFFFF;stroke-miterlimit:10;" x1="60.5" y1="0" x2="60.5" y2="1300"/>
	<line style="fill:none;stroke:#FFFFFF;stroke-miterlimit:10;" x1="50.5" y1="0" x2="50.5" y2="1300"/>
	<line style="fill:none;stroke:#FFFFFF;stroke-miterlimit:10;" x1="40.5" y1="0" x2="40.5" y2="1300"/>
	<line style="fill:none;stroke:#FFFFFF;stroke-miterlimit:10;" x1="30.5" y1="0" x2="30.5" y2="1300"/>
	<line style="fill:none;stroke:#FFFFFF;stroke-miterlimit:10;" x1="20.5" y1="0" x2="20.5" y2="1300"/>
	<line style="fill:none;stroke:#FFFFFF;stroke-miterlimit:10;" x1="10.5" y1="0" x2="10.5" y2="1300"/>
	<line style="fill:none;stroke:#FFFFFF;stroke-miterlimit:10;" x1="1300.5" y1="0" x2="1300.5" y2="1300"/>
</g>
<g id="Layer_1">
</g>
</svg>
