<?xml version="1.0" encoding="iso-8859-1"?>
<!-- Generator: Adobe Illustrator 19.0.0, SVG Export Plug-In . SVG Version: 6.00 Build 0)  -->
<svg version="1.1" xmlns="http://www.w3.org/2000/svg" xmlns:xlink="http://www.w3.org/1999/xlink" x="0px" y="0px"
	 viewBox="0 0 661.692 661.778" style="enable-background:new 0 0 661.692 661.778;" xml:space="preserve">
<g id="ring_16">
	<path style="fill:none;stroke:#FFFFFF;stroke-miterlimit:10;" d="M368.371,0.497c27.96,3.141,55.505,9.849,81.768,19.945
		c25.556,9.825,49.872,22.84,72.241,38.627c22.245,15.7,42.554,34.129,60.342,54.743c17.798,20.627,33.062,43.432,45.317,67.765
		c12.467,24.755,21.803,51.072,27.713,78.152c0.729,3.343,1.407,6.697,2.032,10.06"/>
	<path style="fill:none;stroke:#FFFFFF;stroke-miterlimit:10;" d="M0.498,292.314c13.339-143.35,128.339-265.35,272.339-289.35
		c5-1,11-1,16.137-1.953"/>
	<path style="fill:none;stroke:#FFFFFF;stroke-miterlimit:10;" d="M289.899,661.033c-29.272-3.599-58.046-11.123-85.33-22.32
		c-26.352-10.814-51.272-25.067-74-42.233c-22.348-16.878-42.548-36.571-59.997-58.476c-17.625-22.127-32.423-46.487-43.885-72.351
		c-11.91-26.874-20.217-55.319-24.628-84.382c-0.586-3.863-1.104-7.737-1.555-11.618"/>
	<path style="fill:none;stroke:#FFFFFF;stroke-miterlimit:10;" d="M661.195,369.472c-7.358,66.493-34.358,128.493-79.358,180.493
		c-10,11-19,20-30,30c-4,4-9,7-13,11c-50,39-107,64-169.15,70.315"/>
	<path style="fill:none;stroke:#FFFFFF;stroke-miterlimit:10;" d="M657.784,269.788c1.359,7.316,2.474,14.676,3.342,22.066"/>
</g>
<g id="Layer_1">
</g>
</svg>
