<?xml version="1.0" encoding="iso-8859-1"?>
<!-- Generator: Adobe Illustrator 19.0.0, SVG Export Plug-In . SVG Version: 6.00 Build 0)  -->
<svg version="1.1" xmlns="http://www.w3.org/2000/svg" xmlns:xlink="http://www.w3.org/1999/xlink" x="0px" y="0px"
	 viewBox="0 0 217.376 217.376" style="enable-background:new 0 0 217.376 217.376;" xml:space="preserve">
<g id="ring_8">
	<polygon style="fill:none;stroke:#FFFFFF;stroke-miterlimit:10;" points="110.531,18.864 100.199,18.864 106.446,0.5 116.778,0.5 	
		"/>
	<polygon style="fill:none;stroke:#FFFFFF;stroke-miterlimit:10;" points="94.906,19.909 84.73,21.703 87.693,2.533 97.868,0.739 	
		"/>
	<polygon style="fill:none;stroke:#FFFFFF;stroke-miterlimit:10;" points="79.699,23.651 69.99,27.185 69.578,7.792 79.287,4.258 	
		"/>
	<polygon style="fill:none;stroke:#FFFFFF;stroke-miterlimit:10;" points="65.373,29.977 56.425,35.143 52.652,16.116 61.6,10.95 	
		"/>
	<polygon style="fill:none;stroke:#FFFFFF;stroke-miterlimit:10;" points="52.363,38.694 44.448,45.336 37.428,27.253 
		45.343,20.611 	"/>
	<polygon style="fill:none;stroke:#FFFFFF;stroke-miterlimit:10;" points="41.064,49.538 34.422,57.453 24.37,40.864 31.011,32.949 
			"/>
	<polygon style="fill:none;stroke:#FFFFFF;stroke-miterlimit:10;" points="31.82,62.18 26.654,71.128 13.873,56.536 19.039,47.588 	
		"/>
	<polygon style="fill:none;stroke:#FFFFFF;stroke-miterlimit:10;" points="24.912,76.234 21.378,85.944 6.258,73.793 9.791,64.084 	
		"/>
	<polygon style="fill:none;stroke:#FFFFFF;stroke-miterlimit:10;" points="20.549,91.275 18.755,101.45 1.754,92.11 3.548,81.935 	
		"/>
	<polygon style="fill:none;stroke:#FFFFFF;stroke-miterlimit:10;" points="18.864,106.845 18.864,117.177 0.5,110.931 0.5,100.598 	
		"/>
	<polygon style="fill:none;stroke:#FFFFFF;stroke-miterlimit:10;" points="19.909,122.471 21.703,132.646 2.533,129.683 
		0.739,119.508 	"/>
	<polygon style="fill:none;stroke:#FFFFFF;stroke-miterlimit:10;" points="23.651,137.678 27.185,147.387 7.792,147.798 
		4.258,138.089 	"/>
	<polygon style="fill:none;stroke:#FFFFFF;stroke-miterlimit:10;" points="29.977,152.004 35.143,160.952 16.116,164.724 
		10.95,155.776 	"/>
	<polygon style="fill:none;stroke:#FFFFFF;stroke-miterlimit:10;" points="38.694,165.014 45.336,172.929 27.253,179.948 
		20.611,172.033 	"/>
	<polygon style="fill:none;stroke:#FFFFFF;stroke-miterlimit:10;" points="49.538,176.312 57.453,182.954 40.864,193.007 
		32.949,186.365 	"/>
	<polygon style="fill:none;stroke:#FFFFFF;stroke-miterlimit:10;" points="62.18,185.556 71.128,190.722 56.536,203.503 
		47.588,198.337 	"/>
	<polygon style="fill:none;stroke:#FFFFFF;stroke-miterlimit:10;" points="76.234,192.465 85.944,195.998 73.793,211.119 
		64.084,207.585 	"/>
	<polygon style="fill:none;stroke:#FFFFFF;stroke-miterlimit:10;" points="91.275,196.827 101.45,198.621 92.11,215.622 
		81.935,213.828 	"/>
	<polygon style="fill:none;stroke:#FFFFFF;stroke-miterlimit:10;" points="106.845,198.512 117.177,198.512 110.931,216.876 
		100.598,216.876 	"/>
	<polygon style="fill:none;stroke:#FFFFFF;stroke-miterlimit:10;" points="122.471,197.467 132.646,195.673 129.683,214.843 
		119.508,216.637 	"/>
	<polygon style="fill:none;stroke:#FFFFFF;stroke-miterlimit:10;" points="137.678,193.725 147.387,190.192 147.798,209.585 
		138.089,213.119 	"/>
	<polygon style="fill:none;stroke:#FFFFFF;stroke-miterlimit:10;" points="152.004,187.4 160.952,182.233 164.724,201.261 
		155.776,206.427 	"/>
	<polygon style="fill:none;stroke:#FFFFFF;stroke-miterlimit:10;" points="165.014,178.682 172.929,172.041 179.948,190.124 
		172.033,196.765 	"/>
	<polygon style="fill:none;stroke:#FFFFFF;stroke-miterlimit:10;" points="176.312,167.838 182.954,159.923 193.007,176.512 
		186.365,184.427 	"/>
	<polygon style="fill:none;stroke:#FFFFFF;stroke-miterlimit:10;" points="185.556,155.196 190.722,146.248 203.503,160.84 
		198.337,169.788 	"/>
	<polygon style="fill:none;stroke:#FFFFFF;stroke-miterlimit:10;" points="192.465,141.142 195.998,131.433 211.119,143.583 
		207.585,153.293 	"/>
	<polygon style="fill:none;stroke:#FFFFFF;stroke-miterlimit:10;" points="196.827,126.101 198.621,115.926 215.622,125.266 
		213.828,135.442 	"/>
	<polygon style="fill:none;stroke:#FFFFFF;stroke-miterlimit:10;" points="198.512,110.531 198.512,100.199 216.876,106.446 
		216.876,116.778 	"/>
	<polygon style="fill:none;stroke:#FFFFFF;stroke-miterlimit:10;" points="197.467,94.906 195.673,84.73 214.843,87.693 
		216.637,97.868 	"/>
	<polygon style="fill:none;stroke:#FFFFFF;stroke-miterlimit:10;" points="193.725,79.699 190.192,69.99 209.585,69.578 
		213.119,79.287 	"/>
	<polygon style="fill:none;stroke:#FFFFFF;stroke-miterlimit:10;" points="187.4,65.373 182.233,56.425 201.261,52.652 
		206.427,61.6 	"/>
	<polygon style="fill:none;stroke:#FFFFFF;stroke-miterlimit:10;" points="178.682,52.363 172.041,44.448 190.124,37.428 
		196.765,45.343 	"/>
	<polygon style="fill:none;stroke:#FFFFFF;stroke-miterlimit:10;" points="167.838,41.064 159.923,34.422 176.512,24.37 
		184.427,31.011 	"/>
	<polygon style="fill:none;stroke:#FFFFFF;stroke-miterlimit:10;" points="155.196,31.82 146.248,26.654 160.84,13.873 
		169.788,19.039 	"/>
	<polygon style="fill:none;stroke:#FFFFFF;stroke-miterlimit:10;" points="141.142,24.912 131.433,21.378 143.583,6.258 
		153.293,9.791 	"/>
	<polygon style="fill:none;stroke:#FFFFFF;stroke-miterlimit:10;" points="126.101,20.549 115.926,18.755 125.266,1.754 
		135.442,3.548 	"/>
</g>
<g id="Layer_1">
</g>
</svg>
