<?xml version="1.0" encoding="iso-8859-1"?>
<!-- Generator: Adobe Illustrator 19.0.0, SVG Export Plug-In . SVG Version: 6.00 Build 0)  -->
<svg version="1.1" xmlns="http://www.w3.org/2000/svg" xmlns:xlink="http://www.w3.org/1999/xlink" x="0px" y="0px"
	 viewBox="0 0 283.701 282.455" style="enable-background:new 0 0 283.701 282.455;" xml:space="preserve">
<g id="ring_9">
	<polygon style="fill:none;stroke:#FFFFFF;stroke-miterlimit:10;" points="155.244,24.449 135.179,24.449 129.13,0.5 149.195,0.5 	
		"/>
	<polygon style="fill:none;stroke:#FFFFFF;stroke-miterlimit:10;" points="130.672,24.217 111.045,28.388 100.149,6.22 
		119.776,2.048 	"/>
	<polygon style="fill:none;stroke:#FFFFFF;stroke-miterlimit:10;" points="106.588,29.098 88.258,37.259 72.991,17.84 91.321,9.679 
			"/>
	<polygon style="fill:none;stroke:#FFFFFF;stroke-miterlimit:10;" points="84.046,38.879 67.813,50.673 48.842,34.853 
		65.075,23.059 	"/>
	<polygon style="fill:none;stroke:#FFFFFF;stroke-miterlimit:10;" points="64.029,53.134 50.603,68.045 28.758,56.515 
		42.184,41.604 	"/>
	<polygon style="fill:none;stroke:#FFFFFF;stroke-miterlimit:10;" points="47.414,71.239 37.382,88.616 13.617,81.88 23.649,64.503 
			"/>
	<polygon style="fill:none;stroke:#FFFFFF;stroke-miterlimit:10;" points="34.927,92.403 28.726,111.486 4.08,109.838 10.28,90.755 
			"/>
	<polygon style="fill:none;stroke:#FFFFFF;stroke-miterlimit:10;" points="27.112,115.701 25.015,135.656 0.564,139.168 
		2.662,119.213 	"/>
	<polygon style="fill:none;stroke:#FFFFFF;stroke-miterlimit:10;" points="24.312,140.114 26.409,160.069 3.224,168.588 
		1.126,148.633 	"/>
	<polygon style="fill:none;stroke:#FFFFFF;stroke-miterlimit:10;" points="26.649,164.576 32.85,183.659 11.942,196.812 
		5.741,177.729 	"/>
	<polygon style="fill:none;stroke:#FFFFFF;stroke-miterlimit:10;" points="34.021,188.017 44.053,205.394 26.337,222.607 
		16.305,205.23 	"/>
	<polygon style="fill:none;stroke:#FFFFFF;stroke-miterlimit:10;" points="46.105,209.414 59.532,224.325 45.781,244.845 
		32.355,229.934 	"/>
	<polygon style="fill:none;stroke:#FFFFFF;stroke-miterlimit:10;" points="62.374,227.83 78.607,239.624 69.424,262.555 
		53.191,250.761 	"/>
	<polygon style="fill:none;stroke:#FFFFFF;stroke-miterlimit:10;" points="82.117,242.462 100.447,250.623 96.232,274.962 
		77.902,266.801 	"/>
	<polygon style="fill:none;stroke:#FFFFFF;stroke-miterlimit:10;" points="104.47,252.669 124.097,256.841 125.034,281.524 
		105.407,277.352 	"/>
	<polygon style="fill:none;stroke:#FFFFFF;stroke-miterlimit:10;" points="128.457,258.005 148.522,258.005 154.571,281.955 
		134.506,281.955 	"/>
	<polygon style="fill:none;stroke:#FFFFFF;stroke-miterlimit:10;" points="153.029,258.238 172.656,254.066 183.552,276.235 
		163.925,280.406 	"/>
	<polygon style="fill:none;stroke:#FFFFFF;stroke-miterlimit:10;" points="177.113,253.357 195.443,245.196 210.71,264.614 
		192.38,272.775 	"/>
	<polygon style="fill:none;stroke:#FFFFFF;stroke-miterlimit:10;" points="199.655,243.575 215.888,231.781 234.859,247.601 
		218.626,259.395 	"/>
	<polygon style="fill:none;stroke:#FFFFFF;stroke-miterlimit:10;" points="219.671,229.32 233.097,214.409 254.943,225.939 
		241.517,240.85 	"/>
	<polygon style="fill:none;stroke:#FFFFFF;stroke-miterlimit:10;" points="236.286,211.215 246.319,193.839 270.084,200.575 
		260.052,217.952 	"/>
	<polygon style="fill:none;stroke:#FFFFFF;stroke-miterlimit:10;" points="248.774,190.052 254.975,170.969 279.621,172.617 
		273.42,191.7 	"/>
	<polygon style="fill:none;stroke:#FFFFFF;stroke-miterlimit:10;" points="256.589,166.754 258.686,146.799 283.136,143.287 
		281.039,163.242 	"/>
	<polygon style="fill:none;stroke:#FFFFFF;stroke-miterlimit:10;" points="259.389,142.341 257.291,122.386 280.477,113.867 
		282.575,133.822 	"/>
	<polygon style="fill:none;stroke:#FFFFFF;stroke-miterlimit:10;" points="257.052,117.879 250.851,98.796 271.759,85.642 
		277.96,104.725 	"/>
	<polygon style="fill:none;stroke:#FFFFFF;stroke-miterlimit:10;" points="249.68,94.437 239.647,77.061 257.364,59.848 
		267.396,77.224 	"/>
	<polygon style="fill:none;stroke:#FFFFFF;stroke-miterlimit:10;" points="237.595,73.041 224.169,58.13 237.92,37.609 
		251.346,52.52 	"/>
	<polygon style="fill:none;stroke:#FFFFFF;stroke-miterlimit:10;" points="221.326,54.624 205.093,42.831 214.277,19.9 
		230.51,31.694 	"/>
	<polygon style="fill:none;stroke:#FFFFFF;stroke-miterlimit:10;" points="201.584,39.993 183.254,31.832 187.469,7.493 
		205.799,15.654 	"/>
	<polygon style="fill:none;stroke:#FFFFFF;stroke-miterlimit:10;" points="179.231,29.786 159.604,25.614 158.667,0.931 
		178.293,5.102 	"/>
</g>
<g id="Layer_1">
</g>
</svg>
