<?xml version="1.0" encoding="iso-8859-1"?>
<!-- Generator: Adobe Illustrator 19.0.0, SVG Export Plug-In . SVG Version: 6.00 Build 0)  -->
<svg version="1.1" xmlns="http://www.w3.org/2000/svg" xmlns:xlink="http://www.w3.org/1999/xlink" x="0px" y="0px"
	 viewBox="0 0 531.023 365.638" style="enable-background:new 0 0 531.023 365.638;" xml:space="preserve">
<g id="ring_13">
	<g id="LeftButtons">
		<g id="LinkedIn">
			<path style="fill:#FFFFFF;" d="M487.362,328.873v-9.244c0-4.952-2.643-7.257-6.169-7.257c-2.845,0-4.119,1.565-4.829,2.663
				v-2.285h-5.359c0.071,1.514,0,16.122,0,16.122h5.359v-9.004c0-0.48,0.035-0.962,0.176-1.306c0.387-0.962,1.268-1.96,2.749-1.96
				c1.94,0,2.716,1.478,2.716,3.645v8.626L487.362,328.873L487.362,328.873z M465.358,310.55c1.868,0,3.032-1.24,3.032-2.786
				c-0.035-1.582-1.164-2.785-2.997-2.785c-1.833,0-3.03,1.203-3.03,2.785c0,1.548,1.163,2.786,2.963,2.786L465.358,310.55z
				 M468.037,328.873v-16.122h-5.358v16.122H468.037z"/>
			<path style="fill:none;stroke:#FFFFFF;stroke-width:2;stroke-miterlimit:10;" d="M432.724,329.233l49.68,34.69
				c7.026-10.063,13.342-20.605,18.9-31.548c5.558-10.942,10.345-22.259,14.327-33.869l-57.216-19.662
				C452.38,296.361,443.842,313.324,432.724,329.233z"/>
		</g>
		<g id="GitHub">
			<path id="Cat_14_" style="fill:#FFFFFF;" d="M501.493,263.558h-4.015h-4.019c0,0,0.011-2.383,0-4.019
				c-5.498,1.183-7.032-3.014-7.032-3.014c-1.005-2.01-2.01-3.014-2.01-3.014c-2.01-1.194,0-1.005,0-1.005
				c2.01,0,3.014,2.01,3.014,2.01c1.763,2.993,4.9,2.512,6.027,2.01c0-1.005,0.44-2.524,1.005-3.014
				c-4.389-0.495-8.042-3.014-8.042-8.037c0-5.023,1.009-6.027,2.013-7.032c-0.203-0.495-1.044-2.326,0.032-5.023
				c0,0,1.975,0,3.983,3.014c0.996-0.996,4.019-1.005,5.024-1.005c1.003,0,4.027,0.009,5.021,1.005
				c2.01-3.014,3.989-3.014,3.989-3.014c1.074,2.698,0.235,4.528,0.03,5.023c1.005,1.005,2.01,2.01,2.01,7.032
				c0,5.023-3.649,7.542-8.037,8.037c0.566,0.49,1.005,2.22,1.005,3.014L501.493,263.558L501.493,263.558z"/>
			<path style="fill:none;stroke:#FFFFFF;stroke-width:2;stroke-miterlimit:10;" d="M460.623,271.847l57.968,17.64
				c3.573-11.742,6.321-23.719,8.226-35.845c1.904-12.124,2.96-24.367,3.159-36.639l-60.491-1.019
				C469.159,234.509,466.28,253.281,460.623,271.847z"/>
		</g>
		<g id="StackOverflow">
			<g id="g4534" transform="matrix(1.5807476,0,0,1.5807476,-1689.8384,-519.69899)">
				<rect id="rect6" x="1377.622" y="445.542" style="fill:#FFFFFF;" width="7.951" height="1.698"/>
				
					<rect id="rect8" x="1385.452" y="433.002" transform="matrix(-0.171 -0.9853 0.9853 -0.171 1199.5515 1877.0006)" style="fill:#FFFFFF;" width="7.951" height="1.698"/>
				<polygon id="polygon10" style="fill:#FFFFFF;" points="1377.847,442.634 1385.764,443.363 1385.609,445.054 1377.692,444.325 
									"/>
				
					<rect id="rect12" x="1378.251" y="440.086" transform="matrix(-0.9657 -0.2596 0.2596 -0.9657 2602.5957 1225.5837)" style="fill:#FFFFFF;" width="7.951" height="1.698"/>
				<polygon id="polygon14" style="fill:#FFFFFF;" points="1380.441,435.166 1387.289,439.205 1386.426,440.667 1379.578,436.628 
									"/>
				<polygon id="polygon16" style="fill:#FFFFFF;" points="1384.489,431.446 1388.968,438.015 1387.565,438.972 1383.085,432.403 
									"/>
				<polygon id="polygon18" style="fill:#FFFFFF;" points="1375.15,449.9 1375.547,449.9 1388.26,449.9 1388.26,449.927 
					1388.26,449.53 1388.26,441.624 1386.907,441.624 1386.907,448.627 1376.481,448.627 1376.481,441.624 1375.128,441.624 
					1375.128,449.9 				"/>
			</g>
			<path style="fill:none;stroke:#FFFFFF;stroke-width:2;stroke-miterlimit:10;" d="M469.423,208.648l60.582-1.136
				c-0.231-12.271-1.318-24.512-3.253-36.632c-1.935-12.119-4.715-24.089-8.317-35.822l-57.845,17.724
				C466.003,170.5,469.066,189.242,469.423,208.648z"/>
		</g>
		<g id="Blog">
			<path style="fill:#FFFFFF;" d="M459.956,104.179c0,4.946,2.875,9.225,7.046,11.248l-5.963-16.337
				C460.344,100.646,459.956,102.366,459.956,104.179z M480.896,103.547c0-1.545-0.556-2.616-1.031-3.448
				c-0.634-1.031-1.227-1.901-1.227-2.932c0-1.149,0.869-2.218,2.099-2.218c0.053,0,0.107,0.007,0.16,0.011
				c-2.223-2.037-5.186-3.283-8.44-3.283c-4.369,0-8.21,2.242-10.445,5.635c0.294,0.009,0.569,0.016,0.804,0.016
				c1.308,0,3.332-0.16,3.332-0.16c0.672-0.038,0.752,0.95,0.078,1.031c0,0-0.676,0.078-1.43,0.119l4.553,13.539l2.736-8.203
				l-1.948-5.336c-0.673-0.041-1.311-0.119-1.311-0.119c-0.674-0.041-0.594-1.069,0.08-1.031c0,0,2.063,0.16,3.291,0.16
				c1.307,0,3.333-0.16,3.333-0.16c0.671-0.038,0.751,0.95,0.077,1.031c0,0-0.675,0.078-1.43,0.119l4.518,13.436l1.247-4.165
				C480.578,105.964,480.896,104.619,480.896,103.547z M472.676,105.273l-3.751,10.9c1.119,0.329,2.302,0.508,3.532,0.508
				c1.454,0,2.852-0.252,4.151-0.71c-0.034-0.053-0.064-0.109-0.089-0.171L472.676,105.273z M483.425,98.18
				c0.055,0.4,0.086,0.826,0.086,1.287c0,1.268-0.238,2.693-0.952,4.477l-3.818,11.038c3.715-2.166,6.214-6.191,6.214-10.803
				C484.956,102.005,484.401,99.962,483.425,98.18z"/>
			<path style="fill:none;stroke:#FFFFFF;stroke-width:2;stroke-miterlimit:10;" d="M458.262,145.823l57.266-19.801
				c-4.011-11.6-8.828-22.905-14.414-33.834c-5.586-10.928-11.928-21.453-18.98-31.498L432.597,95.42
				C443.222,110.598,451.926,127.477,458.262,145.823z"/>
		</g>
	</g>
	<g id="RightButtons">
		<g id="Instagram">
			<path style="fill:#FFFFFF;" d="M67.544,93.185H48.795c-1.765,0-3.125,1.361-3.125,3.125v18.749c0,1.765,1.361,3.125,3.125,3.125
				h18.749c1.765,0,3.125-1.361,3.125-3.125V96.311C70.67,94.546,69.309,93.185,67.544,93.185z M58.187,100.775
				c2.773,0,5.02,2.177,5.02,4.864c0,2.685-2.246,4.864-5.02,4.864c-2.77,0-5.018-2.18-5.018-4.864
				C53.17,102.952,55.418,100.775,58.187,100.775z M67.544,114.279c0,0.547-0.235,0.781-0.781,0.781H49.576
				c-0.546,0-0.781-0.233-0.781-0.781v-10.937l1.948,0.423c-0.209,0.68-0.322,1.399-0.322,2.144c0,4.154,3.48,7.527,7.768,7.527
				c4.291,0,7.768-3.371,7.768-7.527c0-0.747-0.113-1.464-0.322-2.144l1.911-0.423v10.937H67.544z M67.544,100.217
				c0,0.433-0.349,0.781-0.781,0.781h-3.125c-0.433,0-0.781-0.349-0.781-0.781v-3.125c0-0.433,0.349-0.781,0.781-0.781h3.125
				c0.433,0,0.781,0.349,0.781,0.781L67.544,100.217z"/>
			<path style="fill:none;stroke:#FFFFFF;stroke-width:2;stroke-miterlimit:10;" d="M98.299,95.701l-49.68-34.69
				c-7.026,10.063-13.342,20.605-18.9,31.548c-5.558,10.942-10.345,22.259-14.327,33.869l57.216,19.662
				C78.643,128.574,87.181,111.61,98.299,95.701z"/>
		</g>
		<g id="YouTube">
			<g>
				<path style="fill:#FFFFFF;" d="M41.97,182.963c-0.232,0-0.399,0.065-0.502,0.203c-0.101,0.13-0.15,0.355-0.15,0.665v0.748h1.289
					v-0.748c0-0.311-0.052-0.535-0.154-0.665C42.357,183.028,42.192,182.963,41.97,182.963z"/>
				<path style="fill:#FFFFFF;" d="M36.944,182.937c-0.105,0-0.208,0.022-0.309,0.071c-0.101,0.049-0.202,0.124-0.301,0.226v4.62
					c0.118,0.118,0.234,0.209,0.346,0.261c0.112,0.053,0.228,0.081,0.352,0.081c0.179,0,0.309-0.052,0.392-0.159
					c0.084-0.104,0.128-0.271,0.128-0.51v-3.83c0-0.249-0.052-0.441-0.154-0.57C37.291,183,37.139,182.937,36.944,182.937z"/>
				<path style="fill:#FFFFFF;" d="M41.964,174.462h-1.642v-0.903c-0.298,0.332-0.614,0.587-0.944,0.76
					c-0.327,0.174-0.645,0.261-0.952,0.261c-0.382,0-0.666-0.123-0.858-0.365c-0.192-0.244-0.288-0.607-0.288-1.096v-6.827h1.639
					v6.263c0,0.193,0.037,0.333,0.107,0.42c0.066,0.087,0.18,0.13,0.333,0.13c0.12,0,0.273-0.058,0.457-0.172
					c0.183-0.114,0.353-0.261,0.506-0.44v-6.2h1.642V174.462L41.964,174.462z"/>
				<path style="fill:#FFFFFF;" d="M35.3,166.68c-0.435-0.396-0.993-0.594-1.671-0.594c-0.744,0-1.339,0.187-1.781,0.562
					c-0.444,0.375-0.665,0.878-0.663,1.512v4.233c0,0.694,0.216,1.246,0.645,1.657c0.433,0.409,1.008,0.614,1.724,0.614
					c0.747,0,1.331-0.199,1.759-0.597c0.424-0.398,0.636-0.946,0.636-1.644v-4.217C35.949,167.586,35.731,167.075,35.3,166.68z
					 M34.277,172.55c0,0.218-0.065,0.389-0.196,0.516c-0.133,0.124-0.307,0.186-0.529,0.186c-0.218,0-0.385-0.061-0.502-0.183
					c-0.117-0.124-0.176-0.297-0.176-0.519v-4.45c0-0.179,0.065-0.323,0.187-0.434c0.125-0.11,0.288-0.164,0.49-0.164
					c0.215,0,0.391,0.055,0.525,0.164c0.134,0.11,0.202,0.255,0.202,0.434v4.45H34.277z"/>
				<g>
					<path style="fill:#FFFFFF;" d="M45.046,177.19c-1.198-1.197-11.29-1.213-11.29-1.211c0-0.001-10.09,0.014-11.291,1.21
						c-1.201,1.198-1.204,7.113-1.204,7.146c0,0.045,0.003,5.949,1.204,7.147c1.201,1.195,11.291,1.221,11.291,1.221
						s10.091-0.026,11.29-1.22c1.205-1.202,1.215-7.147,1.215-7.147C46.261,184.301,46.248,178.388,45.046,177.19z M28.959,180.675
						h-1.7v8.59h-1.644v-8.59h-1.698v-1.461h5.042V180.675z M33.762,189.264h-1.455v-0.815c-0.271,0.301-0.549,0.531-0.843,0.686
						c-0.291,0.16-0.572,0.235-0.846,0.235c-0.339,0-0.588-0.108-0.763-0.33c-0.167-0.222-0.255-0.549-0.255-0.993v-6.2h1.456v5.688
						c0,0.176,0.03,0.303,0.089,0.382c0.065,0.079,0.164,0.118,0.298,0.118c0.107,0,0.244-0.052,0.408-0.157
						c0.164-0.104,0.313-0.236,0.453-0.397v-5.633h1.458V189.264z M39.053,187.732c0,0.525-0.114,0.926-0.343,1.207
						c-0.226,0.281-0.559,0.418-0.992,0.418c-0.287,0-0.539-0.052-0.761-0.16c-0.223-0.108-0.434-0.273-0.623-0.502v0.57H34.86
						v-10.051h1.474v3.237c0.198-0.225,0.405-0.399,0.624-0.515c0.223-0.118,0.446-0.176,0.672-0.176
						c0.463,0,0.815,0.159,1.057,0.471c0.245,0.317,0.366,0.78,0.366,1.387V187.732z M44.108,185.737H41.32v1.394
						c0,0.391,0.048,0.662,0.143,0.813c0.098,0.151,0.261,0.225,0.495,0.225c0.241,0,0.409-0.063,0.506-0.192
						c0.095-0.128,0.146-0.408,0.146-0.846v-0.339h1.5v0.381c0,0.761-0.182,1.334-0.549,1.72c-0.363,0.384-0.91,0.574-1.635,0.574
						c-0.652,0-1.168-0.202-1.543-0.611c-0.375-0.407-0.565-0.966-0.565-1.683v-3.329c0-0.642,0.208-1.168,0.62-1.572
						c0.412-0.405,0.942-0.607,1.596-0.607c0.668,0,1.181,0.187,1.54,0.562s0.536,0.913,0.536,1.616V185.737z"/>
					<polygon style="fill:#FFFFFF;" points="26.713,163.39 24.851,163.39 27.051,170.074 27.051,174.462 28.9,174.462 28.9,169.867 
						31.05,163.39 29.171,163.39 28.029,167.815 27.914,167.815 					"/>
				</g>
			</g>
			<path style="fill:none;stroke:#FFFFFF;stroke-width:2;stroke-miterlimit:10;" d="M70.4,153.088l-57.968-17.64
				c-3.573,11.742-6.321,23.719-8.226,35.845c-1.904,12.124-2.96,24.367-3.159,36.639l60.491,1.019
				C61.864,190.425,64.743,171.654,70.4,153.088z"/>
		</g>
		<g id="Twitter">
			<path id="twitter_x5F_icon" style="fill:#FFFFFF;" d="M38.066,238.418c-2.258,0.821-3.685,2.941-3.522,5.26l0.054,0.895
				l-0.903-0.11c-3.287-0.42-6.16-1.844-8.598-4.237l-1.193-1.187l-0.307,0.877c-0.65,1.954-0.235,4.019,1.12,5.406
				c0.722,0.767,0.559,0.877-0.686,0.42c-0.433-0.145-0.813-0.255-0.849-0.201c-0.126,0.129,0.307,1.789,0.65,2.448
				c0.47,0.914,1.427,1.807,2.475,2.338l0.885,0.42l-1.047,0.018c-1.011,0-1.047,0.018-0.938,0.403
				c0.361,1.187,1.788,2.448,3.378,2.995l1.12,0.383l-0.975,0.585c-1.445,0.842-3.143,1.316-4.841,1.351
				c-0.813,0.018-1.481,0.091-1.481,0.147c0,0.182,2.205,1.204,3.486,1.607c3.848,1.187,8.417,0.675,11.85-1.352
				c2.438-1.443,4.877-4.311,6.016-7.087c0.615-1.479,1.229-4.182,1.229-5.477c0-0.84,0.054-0.95,1.066-1.954
				c0.596-0.584,1.155-1.223,1.264-1.407c0.181-0.348,0.162-0.348-0.759-0.037c-1.536,0.548-1.753,0.475-0.992-0.346
				c0.559-0.584,1.229-1.644,1.229-1.954c0-0.054-0.27,0.037-0.578,0.201c-0.324,0.183-1.047,0.458-1.59,0.62l-0.98,0.31
				l-0.885-0.603c-0.487-0.329-1.173-0.694-1.536-0.804C40.306,238.089,38.897,238.126,38.066,238.418z"/>
			<path style="fill:none;stroke:#FFFFFF;stroke-width:2;stroke-miterlimit:10;" d="M61.6,216.286l-60.582,1.136
				c0.231,12.271,1.318,24.512,3.253,36.632c1.935,12.119,4.715,24.089,8.317,35.822l57.845-17.724
				C65.02,254.435,61.957,235.692,61.6,216.286z"/>
		</g>
		<path style="fill:none;stroke:#FFFFFF;stroke-width:2;stroke-miterlimit:10;" d="M72.761,279.112l-57.266,19.801
			c4.011,11.6,8.828,22.905,14.414,33.834c5.586,10.928,11.928,21.453,18.98,31.498l49.537-34.731
			C87.801,314.336,79.097,297.457,72.761,279.112z"/>
		<path style="fill:none;stroke:#FFFFFF;stroke-width:2;stroke-miterlimit:10;" d="M142.566,49.744L106.037,1.401
			c-9.792,7.4-19.056,15.474-27.724,24.164c-8.667,8.689-16.717,17.973-24.092,27.784l48.339,36.38
			C113.713,74.934,127.076,61.439,142.566,49.744z"/>
	</g>
</g>
<g id="Layer_1">
</g>
</svg>
