<?xml version="1.0" encoding="iso-8859-1"?>
<!-- Generator: Adobe Illustrator 19.0.0, SVG Export Plug-In . SVG Version: 6.00 Build 0)  -->
<svg version="1.1" xmlns="http://www.w3.org/2000/svg" xmlns:xlink="http://www.w3.org/1999/xlink" x="0px" y="0px"
	 viewBox="0 0 530.004 530.004" style="enable-background:new 0 0 530.004 530.004;" xml:space="preserve">
<g id="ring_12">
	<path style="fill:none;stroke:#FFFFFF;stroke-miterlimit:10;" d="M261.183,61.091l-1.136-60.582
		c-12.271,0.231-24.512,1.318-36.632,3.253c-12.119,1.935-24.089,4.715-35.822,8.317l17.724,57.845
		C223.035,64.511,241.777,61.448,261.183,61.091z"/>
	<path style="fill:none;stroke:#FFFFFF;stroke-miterlimit:10;" d="M198.358,72.251l-19.801-57.266
		c-11.6,4.011-22.905,8.828-33.834,14.414c-10.928,5.586-21.453,11.928-31.498,18.98l34.731,49.537
		C163.133,87.292,180.012,78.587,198.358,72.251z"/>
	<path style="fill:none;stroke:#FFFFFF;stroke-miterlimit:10;" d="M142.056,102.28l-36.528-48.344
		c-9.792,7.4-19.056,15.474-27.724,24.164c-8.667,8.689-16.717,17.973-24.092,27.784l48.339,36.38
		C113.204,127.469,126.567,113.974,142.056,102.28z"/>
	<path style="fill:none;stroke:#FFFFFF;stroke-miterlimit:10;" d="M97.79,148.236l-49.68-34.69
		c-7.026,10.063-13.342,20.605-18.9,31.548c-5.558,10.942-10.345,22.259-14.327,33.869l57.216,19.662
		C78.133,181.109,86.672,164.145,97.79,148.236z"/>
	<path style="fill:none;stroke:#FFFFFF;stroke-miterlimit:10;" d="M69.891,205.623l-57.968-17.64
		c-3.573,11.742-6.321,23.719-8.226,35.845c-1.904,12.124-2.96,24.367-3.159,36.639l60.491,1.019
		C61.355,242.96,64.233,224.189,69.891,205.623z"/>
	<path style="fill:none;stroke:#FFFFFF;stroke-miterlimit:10;" d="M61.091,268.822l-60.582,1.136
		c0.231,12.271,1.318,24.512,3.253,36.632c1.935,12.119,4.715,24.089,8.317,35.822l57.845-17.724
		C64.511,306.97,61.448,288.227,61.091,268.822z"/>
	<path style="fill:none;stroke:#FFFFFF;stroke-miterlimit:10;" d="M72.251,331.647l-57.266,19.801
		c4.011,11.6,8.828,22.905,14.414,33.834c5.586,10.928,11.928,21.453,18.98,31.498l49.537-34.731
		C87.292,366.871,78.587,349.992,72.251,331.647z"/>
	<path style="fill:none;stroke:#FFFFFF;stroke-miterlimit:10;" d="M102.28,387.948l-48.344,36.528
		c7.4,9.792,15.474,19.056,24.164,27.724c8.689,8.667,17.973,16.717,27.784,24.092l36.38-48.339
		C127.469,416.801,113.974,403.438,102.28,387.948z"/>
	<path style="fill:none;stroke:#FFFFFF;stroke-miterlimit:10;" d="M148.236,432.215l-34.69,49.68
		c10.063,7.026,20.605,13.342,31.548,18.9c10.942,5.558,22.259,10.345,33.869,14.327l19.662-57.216
		C181.109,451.871,164.145,443.332,148.236,432.215z"/>
	<path style="fill:none;stroke:#FFFFFF;stroke-miterlimit:10;" d="M205.623,460.113l-17.64,57.968
		c11.742,3.573,23.719,6.321,35.845,8.226c12.124,1.904,24.367,2.96,36.639,3.159l1.019-60.491
		C242.96,468.65,224.189,465.771,205.623,460.113z"/>
	<path style="fill:none;stroke:#FFFFFF;stroke-miterlimit:10;" d="M268.822,468.913l1.136,60.582
		c12.271-0.231,24.512-1.318,36.632-3.253c12.119-1.935,24.089-4.715,35.822-8.317l-17.724-57.845
		C306.97,465.494,288.227,468.557,268.822,468.913z"/>
	<path style="fill:none;stroke:#FFFFFF;stroke-miterlimit:10;" d="M331.647,457.753l19.801,57.266
		c11.6-4.011,22.905-8.828,33.834-14.414c10.928-5.586,21.453-11.928,31.498-18.98l-34.731-49.537
		C366.871,442.712,349.992,451.417,331.647,457.753z"/>
	<path style="fill:none;stroke:#FFFFFF;stroke-miterlimit:10;" d="M387.948,427.725l36.528,48.344
		c9.792-7.4,19.056-15.474,27.724-24.164c8.667-8.689,16.717-17.973,24.092-27.784l-48.339-36.38
		C416.801,402.535,403.438,416.03,387.948,427.725z"/>
	<path style="fill:none;stroke:#FFFFFF;stroke-miterlimit:10;" d="M432.215,381.768l49.68,34.69
		c7.026-10.063,13.342-20.605,18.9-31.548c5.558-10.942,10.345-22.259,14.327-33.869l-57.216-19.662
		C451.871,348.896,443.332,365.859,432.215,381.768z"/>
	<path style="fill:none;stroke:#FFFFFF;stroke-miterlimit:10;" d="M460.113,324.382l57.968,17.64
		c3.573-11.742,6.321-23.719,8.226-35.845c1.904-12.124,2.96-24.367,3.159-36.639l-60.491-1.019
		C468.65,287.044,465.771,305.816,460.113,324.382z"/>
	<path style="fill:none;stroke:#FFFFFF;stroke-miterlimit:10;" d="M468.913,261.183l60.582-1.136
		c-0.231-12.271-1.318-24.512-3.253-36.632c-1.935-12.119-4.715-24.089-8.317-35.822l-57.845,17.724
		C465.494,223.035,468.557,241.777,468.913,261.183z"/>
	<path style="fill:none;stroke:#FFFFFF;stroke-miterlimit:10;" d="M457.753,198.358l57.266-19.801
		c-4.011-11.6-8.828-22.905-14.414-33.834c-5.586-10.928-11.928-21.453-18.98-31.498l-49.537,34.731
		C442.712,163.133,451.417,180.012,457.753,198.358z"/>
	<path style="fill:none;stroke:#FFFFFF;stroke-miterlimit:10;" d="M427.725,142.056l48.344-36.528
		c-7.4-9.792-15.474-19.056-24.164-27.724c-8.689-8.667-17.973-16.717-27.784-24.092l-36.38,48.339
		C402.535,113.204,416.03,126.567,427.725,142.056z"/>
	<path style="fill:none;stroke:#FFFFFF;stroke-miterlimit:10;" d="M381.768,97.79l34.69-49.68
		c-10.063-7.026-20.605-13.342-31.548-18.9c-10.942-5.558-22.259-10.345-33.869-14.327l-19.662,57.216
		C348.896,78.133,365.859,86.672,381.768,97.79z"/>
	<path style="fill:none;stroke:#FFFFFF;stroke-miterlimit:10;" d="M324.382,69.891l17.64-57.968
		c-11.742-3.573-23.719-6.321-35.845-8.226c-12.124-1.904-24.367-2.96-36.639-3.159l-1.019,60.491
		C287.044,61.355,305.816,64.233,324.382,69.891z"/>
	<path style="fill:none;stroke:#FFFFFF;stroke-miterlimit:10;" d="M261.183,61.091l-1.136-60.582
		c-12.271,0.231-24.512,1.318-36.632,3.253c-12.119,1.935-24.089,4.715-35.822,8.317l17.724,57.845
		C223.035,64.511,241.777,61.448,261.183,61.091z"/>
</g>
<g id="Layer_1">
</g>
</svg>
