<?xml version="1.0" encoding="iso-8859-1"?>
<!-- Generator: Adobe Illustrator 19.0.0, SVG Export Plug-In . SVG Version: 6.00 Build 0)  -->
<svg version="1.1" xmlns="http://www.w3.org/2000/svg" xmlns:xlink="http://www.w3.org/1999/xlink" x="0px" y="0px"
	 viewBox="0 0 114.802 114.802" style="enable-background:new 0 0 114.802 114.802;" xml:space="preserve">
<g id="ring_3">
	<g id="Layer_7">
		<rect x="53.607" y="0.5" style="fill:none;stroke:#FFFFFF;stroke-miterlimit:10;" width="6.828" height="20.483"/>
		
			<rect x="45.511" y="1.275" transform="matrix(0.9848 -0.1736 0.1736 0.9848 -1.2566 8.6707)" style="fill:none;stroke:#FFFFFF;stroke-miterlimit:10;" width="6.828" height="20.483"/>
		
			<rect x="37.672" y="3.445" transform="matrix(0.9397 -0.342 0.342 0.9397 -2.2034 14.8777)" style="fill:none;stroke:#FFFFFF;stroke-miterlimit:10;" width="6.828" height="20.484"/>
		
			<rect x="30.329" y="6.941" transform="matrix(0.866 -0.5 0.5 0.866 -4.0706 19.1734)" style="fill:none;stroke:#FFFFFF;stroke-miterlimit:10;" width="6.828" height="20.483"/>
		
			<rect x="23.704" y="11.66" transform="matrix(0.766 -0.6428 0.6428 0.766 -7.7337 22.5553)" style="fill:none;stroke:#FFFFFF;stroke-miterlimit:10;" width="6.828" height="20.483"/>
		
			<rect x="18" y="17.458" transform="matrix(0.6428 -0.766 0.766 0.6428 -13.5697 26.2987)" style="fill:none;stroke:#FFFFFF;stroke-miterlimit:10;" width="6.828" height="20.483"/>
		
			<rect x="13.389" y="24.158" transform="matrix(0.5 -0.866 0.866 0.5 -21.3895 31.7519)" style="fill:none;stroke:#FFFFFF;stroke-miterlimit:10;" width="6.828" height="20.483"/>
		
			<rect x="10.014" y="31.557" transform="matrix(0.342 -0.9397 0.9397 0.342 -30.4425 40.1214)" style="fill:none;stroke:#FFFFFF;stroke-miterlimit:10;" width="6.828" height="20.484"/>
		
			<rect x="7.971" y="39.43" transform="matrix(0.1736 -0.9848 0.9848 0.1736 -39.5092 52.259)" style="fill:none;stroke:#FFFFFF;stroke-miterlimit:10;" width="6.828" height="20.483"/>
		<rect x="0.5" y="54.366" style="fill:none;stroke:#FFFFFF;stroke-miterlimit:10;" width="20.483" height="6.828"/>
		
			<rect x="8.103" y="55.635" transform="matrix(-0.1736 -0.9848 0.9848 -0.1736 -51.3588 88.6581)" style="fill:none;stroke:#FFFFFF;stroke-miterlimit:10;" width="6.828" height="20.483"/>
		
			<rect x="10.274" y="63.474" transform="matrix(-0.342 -0.9397 0.9397 -0.342 -50.9005 111.7903)" style="fill:none;stroke:#FFFFFF;stroke-miterlimit:10;" width="6.828" height="20.484"/>
		
			<rect x="13.769" y="70.817" transform="matrix(-0.5 -0.866 0.866 -0.5 -44.4252 136.4687)" style="fill:none;stroke:#FFFFFF;stroke-miterlimit:10;" width="6.828" height="20.483"/>
		
			<rect x="18.488" y="77.442" transform="matrix(-0.6428 -0.766 0.766 -0.6428 -31.1894 160.8226)" style="fill:none;stroke:#FFFFFF;stroke-miterlimit:10;" width="6.828" height="20.483"/>
		
			<rect x="24.286" y="83.146" transform="matrix(-0.766 -0.6428 0.6428 -0.766 -11.1098 182.7314)" style="fill:none;stroke:#FFFFFF;stroke-miterlimit:10;" width="6.828" height="20.483"/>
		
			<rect x="30.986" y="87.757" transform="matrix(-0.866 -0.5 0.5 -0.866 15.1917 200.0673)" style="fill:none;stroke:#FFFFFF;stroke-miterlimit:10;" width="6.828" height="20.483"/>
		
			<rect x="38.385" y="91.136" transform="matrix(-0.9397 -0.342 0.342 -0.9397 46.4037 210.9374)" style="fill:none;stroke:#FFFFFF;stroke-miterlimit:10;" width="6.828" height="20.484"/>
		
			<rect x="46.258" y="93.176" transform="matrix(-0.9848 -0.1736 0.1736 -0.9848 80.6313 213.889)" style="fill:none;stroke:#FFFFFF;stroke-miterlimit:10;" width="6.828" height="20.483"/>
		<rect x="54.366" y="93.818" style="fill:none;stroke:#FFFFFF;stroke-miterlimit:10;" width="6.828" height="20.483"/>
		
			<rect x="62.463" y="93.044" transform="matrix(-0.9848 0.1736 -0.1736 -0.9848 148.6878 193.5627)" style="fill:none;stroke:#FFFFFF;stroke-miterlimit:10;" width="6.828" height="20.483"/>
		
			<rect x="70.302" y="90.876" transform="matrix(-0.9397 0.342 -0.342 -0.9397 177.5701 170.9257)" style="fill:none;stroke:#FFFFFF;stroke-miterlimit:10;" width="6.828" height="20.484"/>
		
			<rect x="77.645" y="87.377" transform="matrix(-0.866 0.5 -0.5 -0.866 200.0673 141.6302)" style="fill:none;stroke:#FFFFFF;stroke-miterlimit:10;" width="6.828" height="20.483"/>
		
			<rect x="84.269" y="82.658" transform="matrix(-0.766 0.6428 -0.6428 -0.766 214.5673 107.7035)" style="fill:none;stroke:#FFFFFF;stroke-miterlimit:10;" width="6.828" height="20.483"/>
		
			<rect x="89.974" y="76.86" transform="matrix(-0.6428 0.766 -0.766 -0.6428 220.1399 71.5511)" style="fill:none;stroke:#FFFFFF;stroke-miterlimit:10;" width="6.828" height="20.483"/>
		
			<rect x="94.584" y="70.16" transform="matrix(-0.5 0.866 -0.866 -0.5 216.6275 35.7336)" style="fill:none;stroke:#FFFFFF;stroke-miterlimit:10;" width="6.828" height="20.483"/>
		
			<rect x="97.965" y="62.761" transform="matrix(-0.342 0.9397 -0.9397 -0.342 204.6523 2.7064)" style="fill:none;stroke:#FFFFFF;stroke-miterlimit:10;" width="6.828" height="20.484"/>
		
			<rect x="100.004" y="54.888" transform="matrix(-0.1736 0.9848 -0.9848 -0.1736 185.5159 -25.4074)" style="fill:none;stroke:#FFFFFF;stroke-miterlimit:10;" width="6.828" height="20.483"/>
		<rect x="93.818" y="53.607" style="fill:none;stroke:#FFFFFF;stroke-miterlimit:10;" width="20.483" height="6.828"/>
	</g>
</g>
<g id="Layer_1">
</g>
</svg>
