<?xml version="1.0" encoding="iso-8859-1"?>
<!-- Generator: Adobe Illustrator 19.0.0, SVG Export Plug-In . SVG Version: 6.00 Build 0)  -->
<svg version="1.1" xmlns="http://www.w3.org/2000/svg" xmlns:xlink="http://www.w3.org/1999/xlink" x="0px" y="0px"
	 viewBox="0 0 62.913 62.671" style="enable-background:new 0 0 62.913 62.671;" xml:space="preserve">
<g id="ring_7">
	
		<rect x="1.611" y="1.611" transform="matrix(0.9397 -0.342 0.342 0.9397 -1.4243 2.0341)" style="fill:#FFFFFF;stroke:#FFFFFF;stroke-miterlimit:10;" width="6.889" height="6.889"/>
	
		<rect x="8.136" y="15.521" transform="matrix(0.866 -0.5 0.5 0.866 -7.9312 8.3314)" style="fill:#FFFFFF;stroke:#FFFFFF;stroke-miterlimit:10;" width="6.889" height="6.889"/>
	
		<rect x="16.978" y="28.086" transform="matrix(0.766 -0.6428 0.6428 0.766 -15.4897 20.5042)" style="fill:#FFFFFF;stroke:#FFFFFF;stroke-miterlimit:10;" width="6.889" height="6.889"/>
	
		<rect x="27.867" y="38.925" transform="matrix(0.6428 -0.766 0.766 0.6428 -21.2724 39.1211)" style="fill:#FFFFFF;stroke:#FFFFFF;stroke-miterlimit:10;" width="6.889" height="6.889"/>
	
		<rect x="40.473" y="47.709" transform="matrix(0.5 -0.866 0.866 0.5 -22.3416 63.6104)" style="fill:#FFFFFF;stroke:#FFFFFF;stroke-miterlimit:10;" width="6.889" height="6.889"/>
	
		<rect x="54.412" y="54.17" transform="matrix(0.342 -0.9397 0.9397 0.342 -16.0714 92.2771)" style="fill:#FFFFFF;stroke:#FFFFFF;stroke-miterlimit:10;" width="6.889" height="6.889"/>
</g>
<g id="Layer_1">
</g>
</svg>
