<?xml version="1.0" encoding="iso-8859-1"?>
<!-- Generator: Adobe Illustrator 19.0.0, SVG Export Plug-In . SVG Version: 6.00 Build 0)  -->
<svg version="1.1" xmlns="http://www.w3.org/2000/svg" xmlns:xlink="http://www.w3.org/1999/xlink" x="0px" y="0px"
	 viewBox="0 0 618.037 624.75" style="enable-background:new 0 0 618.037 624.75;" xml:space="preserve">
<g id="ring_15">
	<rect x="301.518" y="0.5" style="fill:none;stroke:#FFFFFF;stroke-miterlimit:10;" width="6" height="25"/>
	<rect x="310.518" y="0.5" style="fill:none;stroke:#FFFFFF;stroke-miterlimit:10;" width="6" height="25"/>
	
		<rect x="199.398" y="20.094" transform="matrix(0.9397 -0.342 0.342 0.9397 1.0584 71.1897)" style="fill:none;stroke:#FFFFFF;stroke-miterlimit:10;" width="6" height="25"/>
	
		<rect x="207.855" y="17.015" transform="matrix(0.9397 -0.342 0.342 0.9397 2.6212 73.8966)" style="fill:none;stroke:#FFFFFF;stroke-miterlimit:10;" width="6" height="25"/>
	
		<rect x="110.137" y="73.433" transform="matrix(0.766 -0.6428 0.6428 0.766 -28.7677 92.8274)" style="fill:none;stroke:#FFFFFF;stroke-miterlimit:10;" width="6" height="25"/>
	
		<rect x="117.031" y="67.648" transform="matrix(0.766 -0.6428 0.6428 0.766 -23.4361 95.9056)" style="fill:none;stroke:#FFFFFF;stroke-miterlimit:10;" width="6" height="25"/>
	
		<rect x="44.502" y="154.085" transform="matrix(0.5 -0.866 0.866 0.5 -120.5154 124.4304)" style="fill:none;stroke:#FFFFFF;stroke-miterlimit:10;" width="6" height="25"/>
	
		<rect x="49.002" y="146.29" transform="matrix(0.5 -0.866 0.866 0.5 -111.5154 124.4304)" style="fill:none;stroke:#FFFFFF;stroke-miterlimit:10;" width="6" height="25"/>
	
		<rect x="10.41" y="252.321" transform="matrix(0.1736 -0.9848 0.9848 0.1736 -249.7159 232.0416)" style="fill:none;stroke:#FFFFFF;stroke-miterlimit:10;" width="6" height="25"/>
	
		<rect x="11.973" y="243.457" transform="matrix(0.1736 -0.9848 0.9848 0.1736 -239.6958 226.2565)" style="fill:none;stroke:#FFFFFF;stroke-miterlimit:10;" width="6" height="25"/>
	
		<rect x="11.973" y="356.293" transform="matrix(-0.1736 -0.9848 0.9848 -0.1736 -345.6166 447.5783)" style="fill:none;stroke:#FFFFFF;stroke-miterlimit:10;" width="6" height="25"/>
	
		<rect x="10.41" y="347.429" transform="matrix(-0.1736 -0.9848 0.9848 -0.1736 -338.7222 435.6369)" style="fill:none;stroke:#FFFFFF;stroke-miterlimit:10;" width="6" height="25"/>
	
		<rect x="49.002" y="453.46" transform="matrix(-0.5 -0.866 0.866 -0.5 -325.5296 743.9746)" style="fill:none;stroke:#FFFFFF;stroke-miterlimit:10;" width="6" height="25"/>
	
		<rect x="44.502" y="445.665" transform="matrix(-0.5 -0.866 0.866 -0.5 -325.5296 728.3862)" style="fill:none;stroke:#FFFFFF;stroke-miterlimit:10;" width="6" height="25"/>
	
		<rect x="117.031" y="532.102" transform="matrix(-0.766 -0.6428 0.6428 -0.766 -138.0831 1038.946)" style="fill:none;stroke:#FFFFFF;stroke-miterlimit:10;" width="6" height="25"/>
	
		<rect x="110.137" y="526.317" transform="matrix(-0.766 -0.6428 0.6428 -0.766 -146.5403 1024.2977)" style="fill:none;stroke:#FFFFFF;stroke-miterlimit:10;" width="6" height="25"/>
	
		<rect x="207.855" y="582.735" transform="matrix(-0.9397 -0.342 0.342 -0.9397 205.4114 1226.6887)" style="fill:none;stroke:#FFFFFF;stroke-miterlimit:10;" width="6" height="25"/>
	
		<rect x="199.398" y="579.656" transform="matrix(-0.9397 -0.342 0.342 -0.9397 190.0597 1217.8254)" style="fill:none;stroke:#FFFFFF;stroke-miterlimit:10;" width="6" height="25"/>
	<rect x="310.518" y="599.25" style="fill:none;stroke:#FFFFFF;stroke-miterlimit:10;" width="6" height="25"/>
	<rect x="301.518" y="599.25" style="fill:none;stroke:#FFFFFF;stroke-miterlimit:10;" width="6" height="25"/>
	
		<rect x="412.639" y="579.656" transform="matrix(-0.9397 0.342 -0.342 -0.9397 1008.7421 1006.4443)" style="fill:none;stroke:#FFFFFF;stroke-miterlimit:10;" width="6" height="25"/>
	
		<rect x="404.182" y="582.735" transform="matrix(-0.9397 0.342 -0.342 -0.9397 993.3904 1015.3076)" style="fill:none;stroke:#FFFFFF;stroke-miterlimit:10;" width="6" height="25"/>
	
		<rect x="501.9" y="526.317" transform="matrix(-0.766 0.6428 -0.6428 -0.766 1238.0211 627.0312)" style="fill:none;stroke:#FFFFFF;stroke-miterlimit:10;" width="6" height="25"/>
	
		<rect x="495.006" y="532.102" transform="matrix(-0.766 0.6428 -0.6428 -0.766 1229.564 641.6795)" style="fill:none;stroke:#FFFFFF;stroke-miterlimit:10;" width="6" height="25"/>
	
		<rect x="567.535" y="445.665" transform="matrix(-0.5 0.866 -0.866 -0.5 1252.5852 193.1504)" style="fill:none;stroke:#FFFFFF;stroke-miterlimit:10;" width="6" height="25"/>
	
		<rect x="563.035" y="453.46" transform="matrix(-0.5 0.866 -0.866 -0.5 1252.5852 208.7388)" style="fill:none;stroke:#FFFFFF;stroke-miterlimit:10;" width="6" height="25"/>
	
		<rect x="601.627" y="347.429" transform="matrix(-0.1736 0.9848 -0.9848 -0.1736 1064.0802 -173.0108)" style="fill:none;stroke:#FFFFFF;stroke-miterlimit:10;" width="6" height="25"/>
	
		<rect x="600.064" y="356.293" transform="matrix(-0.1736 0.9848 -0.9848 -0.1736 1070.9746 -161.0693)" style="fill:none;stroke:#FFFFFF;stroke-miterlimit:10;" width="6" height="25"/>
	
		<rect x="600.064" y="243.457" transform="matrix(0.1736 0.9848 -0.9848 0.1736 750.4119 -382.3911)" style="fill:none;stroke:#FFFFFF;stroke-miterlimit:10;" width="6" height="25"/>
	
		<rect x="601.627" y="252.321" transform="matrix(0.1736 0.9848 -0.9848 0.1736 760.4319 -376.606)" style="fill:none;stroke:#FFFFFF;stroke-miterlimit:10;" width="6" height="25"/>
	
		<rect x="563.035" y="146.29" transform="matrix(0.5 0.866 -0.866 0.5 420.5339 -410.8054)" style="fill:none;stroke:#FFFFFF;stroke-miterlimit:10;" width="6" height="25"/>
	
		<rect x="567.535" y="154.085" transform="matrix(0.5 0.866 -0.866 0.5 429.5339 -410.8054)" style="fill:none;stroke:#FFFFFF;stroke-miterlimit:10;" width="6" height="25"/>
	
		<rect x="495.006" y="67.648" transform="matrix(0.766 0.6428 -0.6428 0.766 168.0293 -301.3609)" style="fill:none;stroke:#FFFFFF;stroke-miterlimit:10;" width="6" height="25"/>
	
		<rect x="501.9" y="73.433" transform="matrix(0.766 0.6428 -0.6428 0.766 173.3609 -304.4391)" style="fill:none;stroke:#FFFFFF;stroke-miterlimit:10;" width="6" height="25"/>
	
		<rect x="404.182" y="17.015" transform="matrix(0.9397 0.342 -0.342 0.9397 34.651 -137.4845)" style="fill:none;stroke:#FFFFFF;stroke-miterlimit:10;" width="6" height="25"/>
	
		<rect x="412.639" y="20.094" transform="matrix(0.9397 0.342 -0.342 0.9397 36.2138 -140.1914)" style="fill:none;stroke:#FFFFFF;stroke-miterlimit:10;" width="6" height="25"/>
</g>
<g id="Layer_1">
</g>
</svg>
